<?xml version="1.0" encoding="UTF-8" standalone="no"?>
<!-- Created with Inkscape (http://www.inkscape.org/) -->

<svg
   version="1.1"
   id="svg2"
   width="666.66669"
   height="666.66669"
   viewBox="0 0 666.66669 666.66669"
   sodipodi:docname="people.eps"
   xmlns:inkscape="http://www.inkscape.org/namespaces/inkscape"
   xmlns:sodipodi="http://sodipodi.sourceforge.net/DTD/sodipodi-0.dtd"
   xmlns="http://www.w3.org/2000/svg"
   xmlns:svg="http://www.w3.org/2000/svg">
  <defs
     id="defs6" />
  <sodipodi:namedview
     id="namedview4"
     pagecolor="#ffffff"
     bordercolor="#000000"
     borderopacity="0.25"
     inkscape:showpageshadow="2"
     inkscape:pageopacity="0.0"
     inkscape:pagecheckerboard="0"
     inkscape:deskcolor="#d1d1d1" />
  <g
     id="g8"
     inkscape:groupmode="layer"
     inkscape:label="ink_ext_XXXXXX"
     transform="matrix(1.3333333,0,0,-1.3333333,0,666.66667)">
    <g
       id="g10"
       transform="scale(0.1)">
      <path
         d="M 0,5000 H 5000 V 0 H 0 v 5000"
         style="fill:#e0e6f5;fill-opacity:1;fill-rule:evenodd;stroke:none"
         id="path12" />
      <path
         d="m 2884.17,2624.72 -121.65,70.69 245.26,141.59 121.65,-70.68 -245.26,-141.6"
         style="fill:#bcc6de;fill-opacity:1;fill-rule:evenodd;stroke:none"
         id="path14" />
      <path
         d="m 2690.1,2824.11 111.05,64.53 188.86,-108.62 1130.46,-650.14 -111.04,-64.53 -1131.09,650.5 -188.24,108.26"
         style="fill:#bcc6de;fill-opacity:1;fill-rule:evenodd;stroke:none"
         id="path16" />
      <path
         d="m 3962.88,2002.51 -121.65,70.69 245.25,141.59 121.66,-70.69 -245.26,-141.59"
         style="fill:#bcc6de;fill-opacity:1;fill-rule:evenodd;stroke:none"
         id="path18" />
      <path
         d="m 2703.18,2838.57 c -96.44,16.41 -161.76,-66.25 -161.34,-141.56 0.38,-66.75 61.16,-115.18 116.98,-157.89 74.02,-56.63 171.64,-92.52 263.09,-67.65 52.7,14.34 107.7,65.23 95.5,134.82 -11.11,63.33 -251.09,221.54 -314.23,232.28"
         style="fill:#bcc6de;fill-opacity:1;fill-rule:evenodd;stroke:none"
         id="path20" />
      <path
         d="m 2878.47,2663.24 -54.36,31.61 -0.21,55.72 54.38,-31.6 0.19,-55.73"
         style="fill:#224279;fill-opacity:1;fill-rule:evenodd;stroke:none"
         id="path22" />
      <path
         d="m 2878.28,2718.97 -54.38,31.6 177.87,102.69 54.37,-31.59 -177.86,-102.7"
         style="fill:#172742;fill-opacity:1;fill-rule:evenodd;stroke:none"
         id="path24" />
      <path
         d="m 3056.14,2821.67 0.18,-55.74 -177.85,-102.69 -0.19,55.73 177.86,102.7"
         style="fill:#1e335b;fill-opacity:1;fill-rule:evenodd;stroke:none"
         id="path26" />
      <path
         d="m 2933.02,3258.95 17.93,-237.78 -19.33,-257.1 -32.39,18.7 1.4,494.87 32.39,-18.69"
         style="fill:#1e335b;fill-opacity:1;fill-rule:evenodd;stroke:none"
         id="path28" />
      <path
         d="m 2933.02,3258.95 32.13,18.67 -1.4,-494.88 -32.13,-18.67 1.4,494.88"
         style="fill:#172742;fill-opacity:1;fill-rule:evenodd;stroke:none"
         id="path30" />
      <path
         d="m 2900.63,3277.64 32.14,18.67 32.38,-18.69 -32.13,-18.67 -32.39,18.69"
         style="fill:#8e8d8c;fill-opacity:1;fill-rule:evenodd;stroke:none"
         id="path32" />
      <path
         d="m 3953.01,2041.74 -54.37,31.6 -0.2,55.72 54.38,-31.59 0.19,-55.73"
         style="fill:#224279;fill-opacity:1;fill-rule:evenodd;stroke:none"
         id="path34" />
      <path
         d="m 3952.82,2097.47 -54.38,31.59 177.86,102.7 54.38,-31.6 -177.86,-102.69"
         style="fill:#172742;fill-opacity:1;fill-rule:evenodd;stroke:none"
         id="path36" />
      <path
         d="m 4130.68,2200.16 0.18,-55.73 -177.85,-102.69 -0.19,55.73 177.86,102.69"
         style="fill:#1e335b;fill-opacity:1;fill-rule:evenodd;stroke:none"
         id="path38" />
      <path
         d="m 4007.55,2637.44 17.93,-237.78 -19.32,-257.09 -32.4,18.7 1.41,494.87 32.38,-18.7"
         style="fill:#1e335b;fill-opacity:1;fill-rule:evenodd;stroke:none"
         id="path40" />
      <path
         d="m 4007.55,2637.44 32.14,18.67 -1.39,-494.87 -32.14,-18.67 1.39,494.87"
         style="fill:#172742;fill-opacity:1;fill-rule:evenodd;stroke:none"
         id="path42" />
      <path
         d="m 3975.17,2656.14 32.14,18.67 32.38,-18.7 -32.14,-18.67 -32.38,18.7"
         style="fill:#8e8d8c;fill-opacity:1;fill-rule:evenodd;stroke:none"
         id="path44" />
      <path
         d="m 2830.59,4055.25 27.41,15.92 1245.61,-722.42 -27.41,-15.93 -1245.61,722.43"
         style="fill:#d3d3d1;fill-opacity:1;fill-rule:evenodd;stroke:none"
         id="path46" />
      <path
         d="m 4076.2,3332.82 27.41,15.93 -3.06,-1076.13 -27.41,-15.94 3.06,1076.14"
         style="fill:#e6efee;fill-opacity:1;fill-rule:evenodd;stroke:none"
         id="path48" />
      <path
         d="m 4076.2,3332.82 -3.06,-1076.14 -1245.6,722.42 3.05,1076.15 1245.61,-722.43"
         style="fill:#fafdfd;fill-opacity:1;fill-rule:evenodd;stroke:none"
         id="path50" />
      <path
         d="m 3894.08,3223.5 0.03,12.43 20.57,-11.89 -0.04,-12.4 z m -42.19,24.37 0.03,12.39 21.01,-12.1 -0.03,-12.43 -21.01,12.14 z m -42.39,24.46 0.03,12.43 21.22,-12.23 -0.04,-12.44 -21.21,12.24 z m -41.55,23.99 0.03,12.43 20.57,-11.88 -0.03,-12.41 -20.57,11.86 z m -42.19,24.37 0.04,12.4 21.21,-12.23 -0.03,-12.44 -21.22,12.27 z m -83.74,48.32 0.04,12.44 20.36,-11.76 -0.06,-12.4 -20.34,11.72 z m -42.39,24.5 0.03,12.4 21.21,-12.23 -0.04,-12.44 -21.2,12.27 z m -42.15,33.04 v 3.73 l 21.21,-12.24 -0.04,-12.43 -11.69,6.74 -0.03,-15.66 -10.2,5.87 0.06,24.35 0.69,-0.36 z m -41.59,15.29 0.03,12.43 20.58,-11.86 -0.04,-12.44 -20.57,11.87 z m -42.18,24.36 0.03,12.44 20.97,-12.14 -0.03,-12.44 -20.97,12.14 z m -42.39,24.5 0.03,12.4 21.17,-12.24 -0.03,-12.43 -21.17,12.27 z m -41.54,23.96 0.03,12.43 21.21,-12.23 -0.07,-12.44 -21.17,12.24 z m -42.19,24.37 0.02,12.43 21.21,-12.23 -0.06,-12.44 -21.17,12.24 z m -42.2,24.36 0.03,12.44 20.98,-12.13 -0.03,-12.45 -20.98,12.14 z m -41.55,23.99 0.04,12.41 20.98,-12.11 v -3.72 l 2.17,-1.25 -0.07,-24.38 -10.17,5.87 0.03,15.65 -12.98,7.53 z m -42.38,24.47 0.03,12.43 21.17,-12.23 -0.03,-12.44 -21.17,12.24 z m -42.2,24.36 0.04,12.44 21.17,-12.26 -0.03,-12.41 -21.18,12.23 z m -41.54,32.67 0.04,3.73 21.17,-12.24 -0.03,-12.43 -11.66,6.74 -0.07,-15.66 -10.81,6.27 0.07,24.37 1.29,-0.78 z m -42.19,15.66 0.03,12.43 20.98,-12.1 -0.03,-12.44 -20.98,12.11 z m -42.43,24.49 0.04,12.44 21.21,-12.24 -0.04,-12.43 -21.21,12.23 z m -41.54,24 0.03,12.44 21.22,-12.27 -0.04,-12.44 -21.21,12.27 z m -42.19,24.37 0.02,12.4 21.23,-12.24 -0.04,-12.44 -21.21,12.28 z m -41.52,23.96 0.04,12.42 20.34,-11.71 -0.05,-12.44 -20.33,11.73 z m -42.19,24.36 0.04,12.43 20.97,-12.12 -0.03,-12.41 -20.98,12.1 z m 1049.56,-755.9 21.18,-12.23 -0.04,-11.69 -21.18,12.26 0.04,11.66 z m -41.58,12.3 0.04,11.69 20.52,-11.86 -0.03,-11.69 -20.53,11.86 z m -42.19,24.36 0.03,11.7 20.98,-12.13 -0.03,-11.66 -20.98,12.09 z m -42.39,24.51 0.03,11.69 21.18,-12.27 -0.03,-11.69 -21.18,12.27 z m -41.55,23.96 0.03,11.69 20.54,-11.86 -0.04,-11.7 -20.53,11.87 z m -42.18,24.37 0.02,11.69 21.18,-12.24 -0.04,-11.69 -21.16,12.24 z m -42.17,36.05 13.62,-7.86 0.04,12.67 10.17,-5.86 -0.07,-24.37 -2.82,1.59 -7.35,4.28 -13.62,7.86 0.03,11.69 z m -41.58,12.3 0.04,11.69 20.33,-11.76 -0.04,-11.69 -20.33,11.76 z m -42.42,24.47 0.02,11.69 21.23,-12.24 -0.04,-11.69 -21.21,12.24 z m -32.64,30.57 11.7,-6.75 -0.04,-11.69 -11.69,6.75 -9.52,5.48 -0.65,0.37 0.07,24.38 10.17,-5.88 -0.04,-12.66 z m -51.07,17.78 0.04,11.69 20.53,-11.89 -0.03,-11.66 -20.54,11.86 z m -42.19,24.36 0.05,11.67 20.96,-12.1 -0.03,-11.7 -20.98,12.13 z m -42.42,24.47 0.04,11.7 21.2,-12.24 -0.02,-11.69 -21.22,12.23 z m -41.55,24 0.05,11.68 21.2,-12.26 -0.03,-11.65 -21.22,12.23 z m -42.19,24.37 0.04,11.68 21.21,-12.26 -0.02,-11.69 -21.23,12.27 z m -42.18,24.36 0.04,11.66 21.01,-12.1 -0.05,-11.69 -21,12.13 z m -41.52,35.65 12.99,-7.49 0.07,12.67 10.16,-5.86 -0.07,-24.37 -2.17,1.26 -7.99,4.61 -13.02,7.49 0.03,11.69 z m -42.42,12.81 0.03,11.69 21.22,-12.26 -0.04,-11.7 -21.21,12.27 z m -42.19,24.36 0.03,11.66 21.22,-12.24 -0.04,-11.69 -21.21,12.27 z m -32,30.16 11.71,-6.74 -0.04,-11.69 -11.7,6.74 -9.51,5.49 -1.29,0.75 0.07,24.37 10.8,-6.25 -0.04,-12.67 z m -51.74,18.17 0.03,11.69 20.99,-12.14 -0.04,-11.66 -20.98,12.11 z m -42.39,24.49 0.04,11.67 21.18,-12.23 -0.04,-11.71 -21.18,12.27 z m -41.54,23.97 0.03,11.69 21.21,-12.24 -0.04,-11.69 -21.2,12.24 z m -42.2,24.36 0.04,11.69 21.21,-12.23 -0.04,-11.69 -21.21,12.23 z m -41.54,23.99 0.03,11.69 20.34,-11.75 -0.04,-11.69 -20.33,11.75 z m -42.19,24.36 0.03,11.69 20.98,-12.12 -0.03,-11.7 -20.98,12.13 z m 1049.55,-755.65 21.22,-12.23 -0.04,-12.68 -21.21,12.24 0.03,12.67 z m -41.57,11.32 0.03,12.67 20.56,-11.86 -0.02,-12.67 -20.57,11.86 z m -42.2,24.36 0.03,12.68 21.02,-12.13 -0.03,-12.68 -21.02,12.13 z m -42.39,24.47 0.04,12.68 21.2,-12.24 -0.03,-12.67 -21.21,12.23 z m -41.55,24 0.04,12.67 20.56,-11.87 -0.03,-12.67 -20.57,11.87 z m -42.19,24.36 0.04,12.68 21.21,-12.24 -0.03,-12.67 -21.22,12.23 z m -28.5,33.65 10.18,-5.89 0.06,24.36 -10.18,5.89 -0.06,-24.36 z m -13.69,-9.28 0.04,12.67 20.97,-12.14 -0.03,-12.67 -20.98,12.14 z m -41.54,23.96 0.04,12.7 20.32,-11.76 -0.03,-12.68 -20.33,11.74 z m -42.39,24.49 0.03,12.68 21.22,-12.24 -0.04,-12.67 -21.21,12.23 z m -42.81,41.89 10.18,-5.87 0.06,24.37 -10.17,5.86 -0.07,-24.36 z m -0.13,-48.49 10.17,-5.87 0.07,24.37 -10.18,5.86 -0.06,-24.36 z m 0.75,30.97 0.03,12.67 21.21,-12.23 -0.03,-12.71 -21.21,12.27 z m -41.54,23.96 0.01,12.7 20.59,-11.89 -0.05,-12.68 -20.55,11.87 z m -42.2,24.36 0.04,12.68 20.97,-12.1 -0.04,-12.68 -20.97,12.1 z m -42.38,24.5 0.03,12.68 21.18,-12.23 -0.04,-12.68 -21.17,12.23 z m -41.56,24 0.04,12.67 21.18,-12.27 -0.04,-12.67 -21.18,12.27 z m -42.18,24.33 0.03,12.67 21.19,-12.23 -0.04,-12.68 -21.18,12.24 z m -42.19,24.36 0.04,12.68 20.96,-12.11 -0.03,-12.67 -20.97,12.1 z m -41.55,24 20.98,-12.14 0.03,12.67 -20.97,12.13 -0.04,-12.66 z m -42.43,24.46 0.07,12.71 21.18,-12.27 -0.03,-12.68 -21.22,12.24 z m -42.18,24.36 0.06,12.68 21.19,-12.24 -0.04,-12.67 -21.21,12.23 z m -42.78,41.89 10.82,-6.23 0.07,24.36 -10.82,6.23 -0.07,-24.36 z m -0.12,-48.46 10.8,-6.26 0.07,24.36 -10.81,6.27 -0.06,-24.37 z m 1.39,30.57 0.02,12.66 21.18,-12.22 -0.03,-12.67 -21.17,12.23 z m -42.2,24.37 0.03,12.66 20.98,-12.12 -0.03,-12.68 -20.98,12.14 z m -42.43,24.47 0.04,12.66 21.21,-12.23 -0.04,-12.68 -21.21,12.25 z m -41.54,23.98 0.03,12.68 21.22,-12.24 -0.04,-12.67 -21.21,12.23 z m -42.19,24.37 0.03,12.67 21.22,-12.23 -0.04,-12.68 -21.21,12.24 z m -41.54,23.98 0.07,12.69 20.32,-11.76 -0.03,-12.68 -20.36,11.75 z m -42.2,24.34 0.08,12.68 20.97,-12.11 -0.03,-12.66 -21.02,12.09 z m 1049.58,-755.62 21.19,-12.24 -0.04,-11.92 -21.17,12.23 0.02,11.93 z m -41.56,12.06 0.02,11.93 20.54,-11.86 -0.03,-11.96 -20.53,11.89 z m -42.2,24.33 0.03,11.97 20.98,-12.14 -0.04,-11.92 -20.97,12.09 z m -42.43,24.51 0.04,11.92 21.21,-12.23 -0.04,-11.93 -21.21,12.24 z m -41.51,23.98 0.04,11.94 20.53,-11.87 -0.04,-11.93 -20.53,11.86 z m -42.19,24.37 0.04,11.93 21.18,-12.27 -0.04,-11.93 -21.18,12.27 z m -42.19,24.32 0.04,11.94 20.98,-12.1 v -3.21 l 2.8,-1.63 -0.06,-24.37 -10.16,5.86 0.02,15.66 -13.62,7.85 z m -41.55,24 0.05,11.93 20.32,-11.73 -0.03,-11.91 -20.34,11.71 z m -42.42,24.51 0.04,11.92 21.21,-12.27 -0.04,-11.92 -21.21,12.27 z m -42.15,33.03 v 3.26 l 21.21,-12.27 -0.03,-11.93 -11.7,6.74 -0.03,-15.66 -10.16,5.88 0.06,24.36 0.65,-0.38 z m -41.58,15.29 0.03,11.92 20.56,-11.85 -0.03,-11.93 -20.56,11.86 z m -42.2,24.37 0.04,11.92 21,-12.1 -0.03,-11.96 -21.01,12.14 z m -42.38,24.46 0.04,11.96 21.2,-12.26 -0.04,-11.94 -21.2,12.24 z m -41.55,24 0.03,11.92 21.22,-12.23 -0.04,-11.93 -21.21,12.24 z m -42.18,24.36 0.03,11.93 21.22,-12.24 -0.04,-11.93 -21.21,12.24 z m -42.19,24.36 0.03,11.93 21.01,-12.13 -0.04,-11.93 -21,12.13 z m -83.95,48.46 0.04,11.93 21.2,-12.24 -0.02,-11.92 -21.22,12.23 z m -42.18,24.37 0.03,11.92 21.21,-12.23 -0.02,-11.93 -21.22,12.24 z m -41.52,32.66 v 3.25 l 21.21,-12.26 -0.03,-11.93 -11.69,6.74 -0.03,-15.66 -10.84,6.25 0.09,24.36 1.29,-0.75 z m -42.22,15.66 0.03,11.96 20.97,-12.12 -0.03,-11.93 -20.97,12.09 z m -42.4,24.5 0.03,11.93 21.18,-12.23 -0.03,-11.94 -21.18,12.24 z m -41.54,24 0.03,11.92 21.22,-12.23 -0.04,-11.97 -21.21,12.28 z m -42.19,24.32 0.03,11.97 21.22,-12.27 -0.04,-11.93 -21.21,12.23 z m -41.54,24 0.03,11.93 20.33,-11.73 -0.04,-11.93 -20.32,11.73 z m -42.2,24.37 0.04,11.93 20.98,-12.11 -0.04,-11.96 -20.98,12.14 z m 1049.55,-755.63 21.21,-12.27 -0.03,-12.67 -21.2,12.27 0.02,12.67 z m -41.58,11.28 0.04,12.67 20.57,-11.85 -0.03,-12.68 -20.58,11.86 z m -42.19,24.36 0.04,12.68 21.01,-12.1 -0.03,-12.67 -21.02,12.09 z m -42.39,24.51 0.04,12.67 21.21,-12.23 -0.03,-12.71 -21.22,12.27 z m -41.54,23.95 0.04,12.68 20.56,-11.86 -0.04,-12.68 -20.56,11.86 z m -42.19,24.37 0.04,12.68 21.21,-12.24 -0.04,-12.67 -21.21,12.23 z m -21.21,13.26 v -1.02 l -20.98,12.12 0.03,12.68 13.63,-7.86 0.02,12.44 10.17,-5.9 -0.07,-24.09 -2.8,1.63 z m -62.53,35.1 0.03,12.67 20.34,-11.76 -0.03,-12.67 -20.34,11.76 z m -42.38,24.47 0.02,12.67 21.22,-12.23 -0.07,-12.68 -21.17,12.24 z m -83.75,48.35 0.04,12.67 20.56,-11.85 -0.07,-12.68 -20.53,11.86 z m -42.19,24.37 0.04,12.67 20.98,-12.13 -0.04,-12.68 -20.98,12.14 z m -42.38,24.46 0.04,12.68 21.17,-12.24 -0.04,-12.67 -21.17,12.23 z m -41.55,24 0.04,12.67 21.18,-12.23 -0.03,-12.67 -21.19,12.23 z m -42.18,24.37 0.04,12.66 21.17,-12.23 -0.04,-12.7 -21.17,12.27 z m -42.19,24.33 0.03,12.7 20.98,-12.12 -0.03,-12.69 -20.98,12.11 z m -83.99,48.49 0.04,12.67 21.21,-12.23 -0.03,-12.7 -21.22,12.26 z m -42.18,24.33 0.04,12.71 21.21,-12.27 -0.04,-12.67 -21.21,12.23 z m -83.7,48.36 0.04,12.67 20.97,-12.1 -0.04,-12.71 -20.97,12.14 z m -42.44,24.46 0.04,12.71 21.22,-12.26 -0.03,-12.68 -21.23,12.23 z m -41.54,24 0.04,12.67 21.21,-12.24 -0.03,-12.67 -21.22,12.24 z m -42.19,24.36 0.04,12.67 21.21,-12.23 -0.03,-12.67 -21.22,12.23 z m -41.54,24 0.06,12.67 20.34,-11.76 -0.04,-12.68 -20.36,11.77 z m -42.2,24.36 0.04,12.68 21.02,-12.14 -0.05,-12.68 -21.01,12.14 z m 252.91,607.77 10.8,-6.27 -0.06,-24.09 -10.8,6.23 0.06,24.13 z m -0.2,-72.86 0.07,24.37 10.8,-6.24 -0.06,-24.37 -10.81,6.24 z m -0.27,-96.95 0.06,24.13 10.81,-6.28 -0.06,-24.09 -10.81,6.24 z m -0.13,-48.73 0.07,24.37 10.8,-6.24 -0.07,-24.37 -10.8,6.24 z m -0.28,-96.96 0.06,24.1 10.81,-6.24 -0.05,-24.12 -10.82,6.26 z m -0.14,-47.74 0.07,24.13 10.82,-6.24 -0.07,-24.12 -10.82,6.23 z m -0.4,-145.68 0.07,24.36 10.8,-6.23 -0.06,-24.36 -10.81,6.23 z m -0.14,-48.49 0.07,24.12 10.81,-6.24 -0.07,-24.13 -10.81,6.25 z m -0.3,-97.19 0.07,24.36 10.84,-6.23 -0.07,-24.36 -10.84,6.23 z m -0.14,-48.49 0.07,24.12 10.85,-6.24 -0.08,-24.13 -10.84,6.25 z m -0.13,-48.47 0.06,24.1 10.85,-6.24 -0.04,-12.44 11.66,-6.74 -0.03,-12.67 -21.19,12.23 v 1.02 l -1.31,0.74 z m -0.14,-48.73 0.08,24.36 10.84,-6.26 -0.11,-24.37 -10.81,6.27 z m -0.13,-48.49 0.07,24.36 10.8,-6.23 -0.07,-24.36 -10.8,6.23 z m -137.35,929.47 10.16,-5.87 -0.06,-24.13 -10.17,5.87 0.07,24.13 z m -0.21,-72.86 0.07,24.36 10.17,-5.86 -0.07,-24.36 -10.17,5.86 z m -0.13,-48.46 0.06,24.37 10.18,-5.87 -0.07,-24.36 -10.17,5.86 z m -0.14,-48.49 0.07,24.13 10.16,-5.87 -0.06,-24.12 -10.17,5.86 z m -0.17,-48.74 0.07,24.37 10.2,-5.86 -0.07,-24.36 -10.2,5.85 z m -0.13,-48.46 0.07,24.37 10.16,-5.9 -0.06,-24.36 -10.17,5.89 z m -0.14,-48.48 0.07,24.12 10.17,-5.9 -0.06,-24.09 -10.18,5.87 z m -0.14,-47.76 0.07,24.13 10.17,-5.86 -0.07,-24.13 -10.17,5.86 z m -0.13,-48.69 0.07,24.33 10.16,-5.86 -0.07,-24.37 -10.16,5.9 z m -0.13,-48.49 0.07,24.36 10.15,-5.86 -0.05,-24.37 -10.17,5.87 z m -0.14,-48.5 0.07,24.37 10.17,-5.86 -0.07,-24.37 -10.17,5.86 z m -0.13,-48.45 0.06,24.09 10.17,-5.86 -0.07,-24.13 -10.16,5.9 z m -0.13,-48.73 0.06,24.36 10.16,-5.9 -0.06,-24.33 -10.16,5.87 z m -0.15,-48.5 0.07,24.37 10.18,-5.86 -0.07,-24.37 -10.18,5.86 z m -0.13,-48.46 0.06,24.1 10.18,-5.86 -0.07,-24.14 -10.17,5.9 z m -0.14,-48.49 0.07,24.12 10.17,-5.9 -0.06,-24.09 -10.18,5.87 z m -0.14,-48.73 0.07,24.36 10.17,-5.86 -0.07,-24.37 -10.17,5.87 z m -0.12,-48.49 0.05,24.36 10.17,-5.86 -0.07,-24.36 -10.15,5.86 z m 282.57,687 10.18,-5.86 -0.07,-24.1 -10.16,5.87 0.05,24.09 z m -0.19,-72.82 0.07,24.36 10.15,-5.86 -0.06,-24.37 -10.16,5.87 z m -0.27,-96.96 0.06,24.09 10.17,-5.86 -0.07,-24.13 -10.16,5.9 z m -0.14,-48.73 0.08,24.36 10.15,-5.9 -0.07,-24.36 -10.16,5.9 z m -0.3,-96.99 0.06,24.13 10.2,-5.86 -0.06,-24.13 -10.2,5.86 z m -0.14,-47.71 0.07,24.09 10.2,-5.86 -0.08,-24.09 -10.19,5.86 z m -0.13,-48.73 0.06,24.37 10.17,-5.87 -0.07,-24.36 -10.16,5.86 z m -0.13,-48.49 0.06,24.37 10.17,-5.87 -0.08,-24.36 -10.15,5.86 z m -0.14,-48.46 0.07,24.37 10.16,-5.9 -0.07,-24.37 -10.16,5.9 z m -0.15,-48.5 0.07,24.14 10.18,-5.9 -0.07,-24.09 -10.18,5.85 z m 7.94,-28.96 2.17,-1.26 -0.07,-24.37 -10.17,5.86 0.04,15.66 -12.97,7.52 0.03,11.94 21,-12.14 -0.03,-3.21 z m -8.2,-68.23 0.07,24.37 10.16,-5.9 -0.06,-24.36 -10.17,5.89 z m -0.14,-48.49 0.07,24.13 10.17,-5.9 -0.07,-24.09 -10.17,5.86 z m -0.1,-36.8 0.03,12.44 10.17,-5.86 -0.07,-24.13 -2.16,1.25 v -0.98 l -20.98,12.09 0.03,12.68 12.98,-7.49 z m -0.17,-60.42 0.07,24.36 10.16,-5.86 -0.07,-24.36 -10.16,5.86 z m -0.14,-48.46 0.08,24.37 10.16,-5.9 -0.07,-24.33 -10.17,5.86 z m 141.96,768.19 11.05,-6.37 -0.07,-24.13 -11.04,6.38 0.06,24.12 z m -0.21,-72.85 0.08,24.36 11,-6.37 -0.06,-24.37 -11.02,6.38 z m -0.13,-48.46 0.06,24.36 11.03,-6.37 -0.07,-24.36 -11.02,6.37 z m -0.13,-48.49 0.06,24.13 11.02,-6.38 -0.07,-24.12 -11.01,6.37 z m -0.14,-48.73 0.07,24.36 11.01,-6.37 -0.07,-24.36 -11.01,6.37 z m -0.14,-48.49 0.07,24.36 11.02,-6.37 -0.07,-24.33 -11.02,6.34 z m -0.13,-48.46 0.06,24.13 11.02,-6.37 -0.07,-24.13 -11.01,6.37 z m -0.13,-47.76 0.06,24.13 11.01,-6.36 -0.07,-24.13 -11,6.36 z m -0.18,-48.73 0.1,24.37 11.02,-6.36 -0.07,-24.37 -11.05,6.36 z m -0.13,-48.45 0.06,24.36 11.05,-6.37 -0.07,-24.37 -11.04,6.38 z m -0.14,-48.5 0.07,24.37 11.04,-6.37 -0.06,-24.37 -11.05,6.37 z m -0.13,-48.49 0.06,24.13 11.06,-6.37 -0.07,-24.13 -11.05,6.37 z m -0.13,-48.69 0.06,24.36 11.05,-6.37 -0.07,-24.37 -11.04,6.38 z m -0.14,-48.5 0.07,24.37 11.04,-6.37 -0.07,-24.37 -11.04,6.37 z m -0.15,-48.49 0.08,24.13 11.05,-6.37 -0.07,-24.13 -11.06,6.37 z m -0.12,-48.45 0.05,24.09 11.07,-6.38 -0.08,-24.09 -11.04,6.38 z m -0.14,-48.74 0.07,24.37 11.04,-6.37 -0.07,-24.37 -11.04,6.37 z m -0.14,-48.49 0.07,24.37 11.05,-6.39 -0.07,-24.36 -11.05,6.38 z m 142.83,767.72 10.17,-5.9 -0.07,-24.09 -10.16,5.86 0.06,24.13 z m -0.24,-72.87 0.11,24.38 10.16,-5.87 -0.06,-24.36 -10.21,5.85 z m -0.26,-96.95 0.07,24.11 10.15,-5.88 -0.07,-24.12 -10.15,5.89 z m -0.14,-48.72 0.07,24.37 10.15,-5.9 -0.05,-24.34 -10.17,5.87 z m -0.27,-96.95 0.06,24.09 10.17,-5.86 -0.07,-24.13 -10.16,5.9 z m -0.14,-47.75 0.07,24.13 10.16,-5.9 -0.06,-24.1 -10.17,5.87 z m -0.41,-145.68 0.07,24.36 10.16,-5.9 -0.06,-24.32 -10.17,5.86 z m -0.13,-48.5 0.07,24.13 10.16,-5.86 -0.07,-24.13 -10.16,5.86 z m -0.27,-97.18 0.07,24.35 10.16,-5.88 -0.06,-24.37 -10.17,5.9 z m -0.14,-48.49 0.07,24.11 10.17,-5.88 -0.07,-24.1 -10.17,5.87 z m -0.13,-48.51 0.06,24.14 10.17,-5.86 -0.04,-12.45 11.69,-6.74 -0.07,-12.67 -21.16,12.23 v 0.99 l -0.65,0.36 z m -0.14,-48.73 0.07,24.37 10.16,-5.86 -0.06,-24.37 -10.17,5.86 z m -0.14,-48.45 0.07,24.36 10.18,-5.86 -0.07,-24.37 -10.18,5.87 z m 142.81,767.68 10.17,-5.85 -0.07,-24.13 -10.17,5.9 0.07,24.08 z m -0.21,-72.81 0.07,24.36 10.17,-5.9 -0.07,-24.37 -10.17,5.91 z m 7.29,-28.37 2.81,-1.63 -0.07,-24.37 -10.17,5.87 0.04,15.65 -13.62,7.86 0.04,12.45 21,-12.1 -0.03,-3.73 z m -7.55,-68.63 0.05,24.13 10.17,-5.86 -0.07,-24.13 -10.15,5.86 z m -0.14,-48.72 0.06,24.36 10.17,-5.86 -0.06,-24.37 -10.17,5.87 z m -0.27,-96.96 0.06,24.13 10.17,-5.86 -0.07,-24.13 -10.16,5.86 z m -0.15,-47.72 0.08,24.11 10.16,-5.87 -0.06,-24.13 -10.18,5.89 z m -0.26,-97.22 0.06,24.38 10.18,-5.87 -0.07,-24.36 -10.17,5.85 z m -0.14,-48.49 0.07,24.36 10.17,-5.85 -0.06,-24.37 -10.18,5.86 z m -0.14,-48.46 0.07,24.09 10.17,-5.86 -0.07,-24.08 -10.17,5.85 z m -0.3,-97.22 0.11,24.36 10.16,-5.86 -0.07,-24.36 -10.2,5.86 z m -0.14,-48.46 0.07,24.09 10.21,-5.86 -0.1,-24.12 -10.18,5.89 z m -0.26,-97.22 0.07,24.36 10.15,-5.86 -0.06,-24.36 -10.16,5.86 z m -0.14,-48.46 0.07,24.33 10.17,-5.86 -0.08,-24.37 -10.16,5.9 z m 141.96,768.19 10.39,-6 -0.05,-24.12 -10.41,6 0.07,24.12 z m -0.2,-72.85 0.06,24.36 10.41,-5.99 -0.07,-24.38 -10.4,6.01 z m -0.15,-48.49 0.07,24.36 10.41,-6 -0.08,-24.37 -10.4,6.01 z m -0.13,-48.46 0.07,24.09 10.4,-5.99 -0.07,-24.1 -10.4,6 z m -0.14,-48.73 0.07,24.36 10.41,-6 -0.07,-24.37 -10.41,6.01 z m -0.13,-48.5 0.06,24.36 10.41,-5.99 -0.1,-24.37 -10.37,6 z m -0.13,-48.46 0.07,24.09 10.37,-5.99 -0.07,-24.1 -10.37,6 z m -0.14,-47.75 0.07,24.13 10.36,-5.99 -0.07,-24.13 -10.36,5.99 z m -0.14,-48.73 0.07,24.37 10.36,-6 -0.06,-24.36 -10.37,5.99 z m -0.13,-48.49 0.07,24.37 10.36,-5.96 -0.06,-24.38 -10.37,5.97 z m -0.13,-48.46 0.07,24.37 10.36,-6.01 -0.07,-24.35 -10.36,5.99 z m -0.15,-48.49 0.07,24.13 10.37,-6.01 -0.07,-24.12 -10.37,6 z m -0.13,-48.73 0.07,24.37 10.37,-6.01 -0.07,-24.36 -10.37,6 z m -0.14,-48.46 0.07,24.37 10.38,-6 -0.07,-24.37 -10.38,6 z m -0.14,-48.49 0.08,24.13 10.37,-6 -0.07,-24.13 -10.38,6 z m -0.16,-48.5 0.08,24.13 10.4,-6 -0.08,-24.09 -10.4,5.96 z m -0.14,-48.7 0.07,24.37 10.4,-5.99 -0.07,-24.37 -10.4,5.99 z m -0.14,-48.48 0.07,24.36 10.4,-6 -0.06,-24.36 -10.41,6 z m 101.03,698.45 21.21,-12.23 -0.04,-12.44 -21.21,12.24 0.04,12.43 v 0"
         style="fill:#c7dbd9;fill-opacity:1;fill-rule:evenodd;stroke:none"
         id="path52" />
      <path
         d="m 3018.23,3632.84 -33.11,-32.81 -24.83,105.8 -7.71,-1.8 26.46,-112.67 1.6,-6.87 5.03,4.97 38.12,37.78 -5.56,5.6"
         style="fill:#297771;fill-opacity:1;fill-rule:evenodd;stroke:none"
         id="path54" />
      <path
         d="m 3013.16,3548.45 c 1.61,-0.03 3.14,0.12 4.59,0.42 7.48,1.54 12.84,7.02 16.33,14.51 3.21,6.92 4.81,15.69 4.96,24.56 v 0.01 c 0.09,5.9 -0.46,11.86 -1.6,17.37 -2.85,13.77 -12.41,25.04 -24.09,33.19 v 0.01 c -14.33,9.99 -32.07,15.34 -44.32,14.83 -12.41,-0.52 -22.45,-6.24 -29.62,-15.25 -7.44,-9.36 -11.76,-22.31 -12.38,-36.62 -0.27,-6.1 0.16,-12.23 1.22,-18.24 3.33,-19.06 12.88,-37.35 26.11,-51.06 13.37,-13.85 30.56,-23.1 48.97,-23.9 4.26,-0.18 8.59,0.07 12.91,0.83 14.9,2.6 26.04,13.64 33.11,28.09 7.84,16.05 10.66,36.46 7.95,53.87 l -7.46,-1.15 c 2.49,-15.98 -0.1,-34.7 -7.29,-49.39 -6.05,-12.39 -15.38,-21.82 -27.62,-23.95 -3.81,-0.67 -7.59,-0.9 -11.27,-0.75 -16.36,0.72 -31.75,9.07 -43.84,21.59 -12.22,12.66 -21.04,29.54 -24.11,47.12 -0.96,5.53 -1.36,11.11 -1.13,16.62 0.56,12.71 4.3,24.11 10.76,32.22 5.83,7.34 13.95,12 23.98,12.41 10.81,0.46 26.69,-4.42 39.7,-13.49 l 0.01,0.01 c 10.24,-7.14 18.59,-16.86 21,-28.5 1.03,-5 1.53,-10.41 1.45,-15.75 -0.13,-7.85 -1.51,-15.55 -4.28,-21.51 -2.5,-5.39 -6.13,-9.27 -10.95,-10.27 -0.95,-0.19 -1.95,-0.28 -2.96,-0.27 l -0.13,-7.56"
         style="fill:#27296c;fill-opacity:1;fill-rule:evenodd;stroke:none"
         id="path56" />
      <path
         d="m 3508.34,3053.27 c 1.62,-0.02 3.15,0.13 4.59,0.42 7.48,1.54 12.85,7.02 16.33,14.52 3.22,6.92 4.82,15.69 4.95,24.55 v 0.02 c 0.1,5.89 -0.45,11.86 -1.59,17.36 -2.84,13.78 -12.41,25.05 -24.09,33.19 v 0.01 c -14.33,9.99 -32.07,15.34 -44.32,14.83 -12.42,-0.52 -22.45,-6.23 -29.62,-15.25 -7.44,-9.37 -11.75,-22.31 -12.38,-36.61 -0.26,-6.11 0.17,-12.24 1.21,-18.25 3.33,-19.06 12.89,-37.35 26.13,-51.06 13.37,-13.85 30.54,-23.1 48.96,-23.89 4.27,-0.19 8.59,0.07 12.9,0.83 14.9,2.6 26.06,13.64 33.12,28.09 7.85,16.04 10.67,36.45 7.96,53.86 l -7.48,-1.15 c 2.5,-15.98 -0.08,-34.69 -7.27,-49.39 -6.07,-12.38 -15.39,-21.81 -27.63,-23.95 -3.81,-0.67 -7.59,-0.9 -11.28,-0.74 -16.34,0.71 -31.75,9.07 -43.83,21.59 -12.21,12.65 -21.03,29.53 -24.11,47.12 -0.96,5.52 -1.36,11.1 -1.12,16.61 0.56,12.72 4.3,24.12 10.74,32.23 5.84,7.34 13.97,11.99 24,12.41 10.81,0.44 26.68,-4.42 39.69,-13.5 l 0.01,0.01 c 10.24,-7.13 18.6,-16.85 21,-28.5 1.04,-5 1.53,-10.41 1.45,-15.74 -0.12,-7.86 -1.51,-15.56 -4.27,-21.51 -2.51,-5.39 -6.14,-9.28 -10.97,-10.28 -0.94,-0.19 -1.93,-0.28 -2.95,-0.27 l -0.13,-7.56"
         style="fill:#27296c;fill-opacity:1;fill-rule:evenodd;stroke:none"
         id="path58" />
      <path
         d="m 3477.63,3064.55 c 6.46,0 11.72,9.02 11.72,20.08 0,11.05 -5.26,20.07 -11.72,20.07 -6.44,0 -11.71,-9.02 -11.71,-20.07 0,-11.06 5.27,-20.08 11.71,-20.08"
         style="fill:#27296c;fill-opacity:1;fill-rule:evenodd;stroke:none"
         id="path60" />
      <path
         d="m 3474.68,3089.09 -491.72,505.52 -4.14,-3.89 491.73,-505.52 4.13,3.89"
         style="fill:#27296c;fill-opacity:1;fill-rule:evenodd;stroke:none"
         id="path62" />
      <path
         d="m 3620.35,3493.01 c -13.99,-51.58 -5.55,-104.26 -52.39,-80.66 l -124.87,70.71 c 46.49,-15.73 39.97,33.47 50.53,83.45 l 126.73,-73.5"
         style="fill:#8bd8db;fill-opacity:1;fill-rule:evenodd;stroke:none"
         id="path64" />
      <path
         d="m 3912.35,3115.46 c -13.99,-51.58 -5.55,-104.26 -52.39,-80.66 l -124.87,70.71 c 46.49,-15.73 39.96,33.46 50.53,83.45 l 126.73,-73.5"
         style="fill:#f47145;fill-opacity:1;fill-rule:evenodd;stroke:none"
         id="path66" />
      <path
         d="m 3839.81,2979.69 c -13.98,-51.58 -5.55,-104.26 -52.38,-80.66 l -124.88,70.71 c 46.49,-15.74 39.97,33.46 50.54,83.45 l 126.72,-73.5"
         style="fill:#84d7ea;fill-opacity:1;fill-rule:evenodd;stroke:none"
         id="path68" />
      <path
         d="m 3653.82,3321.9 c -13.98,-51.58 -5.54,-104.25 -52.38,-80.65 l -124.86,70.71 c 46.47,-15.73 39.96,33.46 50.52,83.45 l 126.72,-73.51"
         style="fill:#d1e74e;fill-opacity:1;fill-rule:evenodd;stroke:none"
         id="path70" />
      <path
         d="m 3510.62,3264.25 c -13.98,-51.58 -5.55,-104.26 -52.39,-80.66 l -124.87,70.71 c 46.48,-15.74 39.97,33.46 50.53,83.44 l 126.73,-73.49"
         style="fill:#e9ef4c;fill-opacity:1;fill-rule:evenodd;stroke:none"
         id="path72" />
      <path
         d="m 3221.78,3229.76 c -13.98,-51.59 -5.53,-104.26 -52.38,-80.66 l -124.87,70.71 c 46.48,-15.73 39.97,33.46 50.53,83.45 l 126.72,-73.5"
         style="fill:#224279;fill-opacity:1;fill-rule:evenodd;stroke:none"
         id="path74" />
      <path
         d="m 3070.07,3477.97 c -13.98,-51.58 -5.54,-104.26 -52.38,-80.66 l -76.65,43.92 c 46.47,-15.73 39.96,33.46 50.53,83.45 l 78.5,-46.71"
         style="fill:#84d7ea;fill-opacity:1;fill-rule:evenodd;stroke:none"
         id="path76" />
      <path
         d="m 4071.25,3348.06 43.71,25.39 -0.15,-45.85 -43.68,-25.39 0.12,45.85"
         style="fill:#1e335b;fill-opacity:1;fill-rule:evenodd;stroke:none"
         id="path78" />
      <path
         d="m 2819.45,4067.98 43.7,25.4 1251.81,-719.93 -43.71,-25.39 -1251.8,719.92"
         style="fill:#172742;fill-opacity:1;fill-rule:evenodd;stroke:none"
         id="path80" />
      <path
         d="m 4071.25,3348.06 -0.12,-45.85 -1251.8,719.92 0.12,45.85 1251.8,-719.92"
         style="fill:#224279;fill-opacity:1;fill-rule:evenodd;stroke:none"
         id="path82" />
      <path
         d="m 3674.73,2278.98 c -96.43,16.41 -161.77,-66.26 -161.34,-141.57 0.38,-66.75 61.16,-115.18 116.99,-157.89 74.01,-56.63 171.64,-92.52 263.08,-67.65 52.71,14.35 107.71,65.24 95.5,134.83 -11.1,63.32 -251.08,221.54 -314.23,232.28"
         style="fill:#bcc6de;fill-opacity:1;fill-rule:evenodd;stroke:none"
         id="path84" />
      <path
         d="m 2441.22,2633.9 c 122.31,-240.35 -152.53,-440.33 -406.13,-458.54 -195.53,-14.04 -502.96,60.77 -525.82,297.38 -4.94,51.1 226.04,-94.63 276.03,-50.92 38.26,33.45 234.41,405.32 378.03,402.7 129.37,-2.37 252.65,-141.01 277.89,-190.62"
         style="fill:#bcc6de;fill-opacity:1;fill-rule:evenodd;stroke:none"
         id="path86" />
      <path
         d="m 1623.96,2997.5 c -71.82,-150.81 -173.57,-343.75 -125.55,-498.11 22.55,-72.52 134.06,-233.35 355.49,-251.12 236.98,-19 510.92,61.43 550.21,313.56 20.43,131.17 -61.76,238.54 -224.48,364.2 -124.54,96.17 -208.46,209.51 -302.14,216.3 -76.46,5.56 -209.07,-50.39 -253.53,-144.83"
         style="fill:#2c4a5c;fill-opacity:1;fill-rule:evenodd;stroke:none"
         id="path88" />
      <path
         d="m 1754.63,3010.56 c -6.96,-31.06 -3.26,-75.25 3.25,-131.32 17.96,-154.97 27.27,-283.89 209.38,-305.95 96.35,-11.68 234.38,16.52 283.5,69.21 39.45,42.29 47.57,100 -1.59,150.96 -59.65,61.8 -194.28,98.57 -243.13,139.1 -40.35,33.47 -78.77,112.41 -101.69,130.13 -40.67,31.43 -139.55,-6.81 -149.72,-52.13"
         style="fill:#385f75;fill-opacity:1;fill-rule:evenodd;stroke:none"
         id="path90" />
      <path
         d="m 822.848,1897.84 403.412,232.82 374.82,-217.81 -403.33,-232.87 -374.902,217.86"
         style="fill:#bcc6de;fill-opacity:1;fill-rule:evenodd;stroke:none"
         id="path92" />
      <path
         d="m 1218.19,1913.16 -331.534,173.9 0.164,-180.14 306.22,-177.95 25.15,184.19"
         style="fill:#354468;fill-opacity:1;fill-rule:evenodd;stroke:none"
         id="path94" />
      <path
         d="m 1192.88,1909.1 0.16,-180.13 333.31,192.44 -0.16,180.05 -0.07,0.04 -333.24,-192.4"
         style="fill:#455884;fill-opacity:1;fill-rule:evenodd;stroke:none"
         id="path96" />
      <path
         d="m 1215.46,1986.37 -423.601,220.21 0.215,-75.94 403.346,-234.39 20.04,90.12"
         style="fill:#e9e8e7;fill-opacity:1;fill-rule:evenodd;stroke:none"
         id="path98" />
      <path
         d="m 791.859,2206.58 403.351,-234.39 438.94,253.43 -403.25,234.34 -439.041,-253.38"
         style="fill:#fcfcfd;fill-opacity:1;fill-rule:evenodd;stroke:none"
         id="path100" />
      <path
         d="m 1195.21,1972.19 0.21,-75.94 439.03,253.48 -0.21,75.83 -0.09,0.06 -438.94,-253.43"
         style="fill:#f3f3f3;fill-opacity:1;fill-rule:evenodd;stroke:none"
         id="path102" />
      <path
         d="m 1284.72,2396.37 c -39.76,22.95 -104.04,22.95 -143.58,-0.03 -39.5,-22.96 -39.3,-60.19 0.47,-83.15 19.89,-11.48 45.9,-17.23 71.89,-17.23 25.98,0 51.93,5.73 71.69,17.21 39.55,22.98 39.33,60.22 -0.47,83.2"
         style="fill:#979a9e;fill-opacity:1;fill-rule:evenodd;stroke:none"
         id="path104" />
      <path
         d="m 1111.63,2355.06 20.25,-109.11 c 2.4,-9.98 10.15,-19.61 23.38,-27.29 32.2,-18.58 84.19,-18.58 116.15,-0.01 14.65,8.52 22.56,19.45 23.73,30.59 l 19.55,105.23 c -2.4,-66.69 -203.14,-29.03 -203.06,0.59"
         style="fill:#929398;fill-opacity:1;fill-rule:evenodd;stroke:none"
         id="path106" />
      <path
         d="m 1268.44,2386.9 c -30.71,17.74 -80.37,17.74 -110.92,-0.02 -30.51,-17.74 -30.35,-46.5 0.37,-64.23 30.75,-17.75 80.4,-17.75 110.92,-0.01 30.55,17.75 30.38,46.51 -0.37,64.26"
         style="fill:#2c1713;fill-opacity:1;fill-rule:evenodd;stroke:none"
         id="path108" />
      <path
         d="m 1132.71,2455.71 c -0.08,6.56 9.82,10.09 22.59,14.71 12.82,4.64 28.56,10.34 43.37,7.83 2.47,-0.41 11.64,-1.26 14.19,-6.68 8.1,-17.17 14.03,-69.39 6.68,-89.74 0,0 -24.21,-1.24 -35.9,0 -17.51,1.86 -50.72,58.61 -50.93,73.88"
         style="fill:#345323;fill-opacity:1;fill-rule:evenodd;stroke:none"
         id="path110" />
      <path
         d="m 1240.2,2405.37 c 6.89,21.28 15.25,35.95 27.1,44.22 25.29,17.64 78.36,6.47 91.49,-24.82 14.6,-34.85 -5.33,-88.85 -10.58,-107.42 -14.04,21.14 -28.71,45.68 -39.1,46.39 -28.03,1.92 -64.7,-22.23 -69.38,2.63 -3.37,17.88 -4.67,23.13 0.47,39"
         style="fill:#44722c;fill-opacity:1;fill-rule:evenodd;stroke:none"
         id="path112" />
      <path
         d="m 1186.12,2405.37 c -6.9,21.28 -15.26,35.95 -27.1,44.22 -25.29,17.64 -78.37,6.47 -91.5,-24.82 -14.6,-34.85 5.34,-88.85 10.59,-107.42 14.02,21.14 28.71,45.68 39.1,46.39 28.03,1.92 64.69,-22.23 69.38,2.63 3.37,17.88 4.66,23.13 -0.47,39"
         style="fill:#44722c;fill-opacity:1;fill-rule:evenodd;stroke:none"
         id="path114" />
      <path
         d="m 1133.06,2262.42 c 48.35,48.66 21.29,113.89 59.28,113.56 -39.11,41.12 -82.15,25.48 -94.53,-10.28 -9.66,-27.89 8.39,-65.67 35.25,-103.28"
         style="fill:#56a034;fill-opacity:1;fill-rule:evenodd;stroke:none"
         id="path116" />
      <path
         d="m 1286.36,2260.75 c -48.35,48.66 -21.29,113.89 -59.28,113.56 39.11,41.12 82.16,25.48 94.54,-10.28 9.65,-27.89 -8.39,-65.67 -35.26,-103.28"
         style="fill:#56a034;fill-opacity:1;fill-rule:evenodd;stroke:none"
         id="path118" />
      <path
         d="m 1238.13,2385.59 c -3.33,-4.37 -19.58,-3.09 -23.79,0.42 -10.08,15.84 -9.18,71.2 3.41,89.58 4.19,6.11 8.87,12.31 32.24,0.92 24.88,-12.14 39.78,0.24 71.64,-22.89 -41.42,1.45 -39.74,9.18 -83.5,-68.03"
         style="fill:#2d421c;fill-opacity:1;fill-rule:evenodd;stroke:none"
         id="path120" />
      <path
         d="m 1215.1,2257.63 c 16.61,18.93 54.38,64.29 35.27,105.68 -4.97,10.76 -9.25,16.1 -14.77,18.29 -5.6,2.22 -12.47,1.21 -22.66,-0.66 -14.12,2.49 -23.26,4.51 -29.48,2.71 -3.91,-1.13 -12.24,-9.93 -13.41,-15.28 -10.02,-46.17 -7.15,-67.16 45.05,-110.74"
         style="fill:#63c031;fill-opacity:1;fill-rule:evenodd;stroke:none"
         id="path122" />
      <path
         d="m 2890.69,3630.54 c -9.26,-17.54 -23.58,-38.15 -23.72,-53.5 -0.23,-21.35 1.27,-41.62 -2.56,-71.2 l 19.64,-7.3 c 28.42,19.32 11.39,40.02 8.3,76.84 l 11.9,40.91 c 2.45,10.49 -5.66,29.21 -13.56,14.25"
         style="fill:#fcd797;fill-opacity:1;fill-rule:evenodd;stroke:none"
         id="path124" />
      <path
         d="m 2863.21,3513.25 c -11.9,-37.26 -36.21,-89.46 -48.76,-126.17 -5.18,-15.17 -3.06,-22.99 -6.39,-39.78 29.71,-17.28 46.09,-9.92 54.64,12.14 12.06,31.09 27.14,106.22 30.76,138.65 l -30.25,15.16"
         style="fill:#ccb9cd;fill-opacity:1;fill-rule:evenodd;stroke:none"
         id="path126" />
      <path
         d="m 2879.47,3559.44 c 8.87,1.94 16.32,12.14 19.22,23.36 1.23,4.73 2.38,9.46 4.2,12.22 1.35,1.54 2.97,2.39 4.94,2.11 3.5,-0.51 8.52,-9.35 4.04,-20.5 l -7.08,-17.6 c 5.88,-22.88 1.81,-42.86 -18.99,-59.86 l -10.93,18.39 -0.24,27.54 4.84,14.34"
         style="fill:#fcd797;fill-opacity:1;fill-rule:evenodd;stroke:none"
         id="path128" />
      <path
         d="m 2968.98,3490.85 -33.63,-72.98 c -5.35,-11.61 10.94,-13.78 14.26,-6.55 l 33.64,72.99 c 3.95,8.59 -9.38,17.14 -14.27,6.54"
         style="fill:#27296c;fill-opacity:1;fill-rule:evenodd;stroke:none"
         id="path130" />
      <path
         d="m 2979.5,3500.86 -11.85,-25.7 c -1.89,-4.1 3.85,-4.86 5.02,-2.31 l 11.85,25.71 c 1.39,3.03 -3.3,6.03 -5.02,2.3"
         style="fill:#27296c;fill-opacity:1;fill-rule:evenodd;stroke:none"
         id="path132" />
      <path
         d="m 2703.94,3504.03 c -38.31,-22.11 -59.28,-45.91 -46.85,-53.13 12.43,-7.22 53.57,4.85 91.87,26.97 38.3,22.11 59.28,45.9 46.85,53.12 -12.44,7.23 -53.57,-4.84 -91.87,-26.96"
         style="fill:#cbe3f5;fill-opacity:1;fill-rule:evenodd;stroke:none"
         id="path134" />
      <path
         d="m 2770,2846.65 c -8.68,-19.87 -33.79,-87.91 -35.87,-105.91 -0.95,-8.24 -2.23,-17.56 -1.31,-32.21 0,0 -21.13,1.23 -23.4,2.01 -2.28,0.79 -27.02,23.42 -27.02,23.42 0,0 10.9,54.08 12.29,56.81 15.87,30.97 -2.48,36.26 27.23,50.64 13.21,6.4 18.36,21.77 24.32,34.25 l 23.76,-29.01"
         style="fill:#eebb66;fill-opacity:1;fill-rule:evenodd;stroke:none"
         id="path136" />
      <path
         d="m 2732.67,2723.53 c -0.96,-14.41 3.69,-20.19 -0.18,-26.58 -5.12,-8.43 -23.22,0.07 -29.02,3.39 -8.43,4.83 -20.82,20.59 -23.28,32.66 6.76,20.11 9.22,38.96 13.76,59.69 l -22.9,-45.06 -3.86,2.55 c 7.07,16.74 13.91,37.11 18.06,52.41 1.66,6.09 1.81,12.74 3.03,15.96 5.31,14.03 19.84,17.72 32.36,23.58 -7.46,-27.01 -31.04,-85.33 -12.74,-109.16 6.22,-8.1 18.81,-11.1 24.77,-9.44"
         style="fill:#202f43;fill-opacity:1;fill-rule:evenodd;stroke:none"
         id="path138" />
      <path
         d="m 2872.47,3028.7 -108.56,-223.73 -0.04,-0.03 c -0.56,-1.08 -1.48,-1.64 -2.76,-1.59 -5.96,0.28 -17.55,13.72 -25.92,30.01 -6.63,12.91 -9.22,23.74 -7.06,27.55 13.6,48.35 29.07,104.29 57.05,146.65 9.9,14.99 13.41,12.87 23.15,25.39 24.5,31.49 66.85,22.01 64.14,-4.25"
         style="fill:#365478;fill-opacity:1;fill-rule:evenodd;stroke:none"
         id="path140" />
      <path
         d="m 2768.81,2777.16 c 1.11,-21.66 8.98,-93.76 15.15,-110.79 2.82,-7.8 5.84,-16.71 13.19,-29.42 0,0 -19.45,-8.32 -21.83,-8.63 -2.4,-0.31 -34.62,8.9 -34.62,8.9 0,0 -14.39,53.26 -14.36,56.33 0.39,34.79 -18.39,31.34 1.78,57.47 8.97,11.62 6.72,27.68 6.48,41.5 l 34.21,-15.36"
         style="fill:#fcd797;fill-opacity:1;fill-rule:evenodd;stroke:none"
         id="path142" />
      <path
         d="m 2790.33,2650.31 c 5.57,-13.32 12.31,-16.41 11.7,-23.86 -0.82,-9.83 -20.81,-10.3 -27.48,-9.91 -9.7,0.55 -27.83,9.13 -35.4,18.84 -2.92,21.01 -9.15,38.98 -14.32,59.56 l -0.4,-50.55 -4.58,0.56 c -1.14,18.15 -4.12,39.42 -7.23,54.96 -1.24,6.19 -4.07,12.22 -4.41,15.64 -1.51,14.92 9.85,24.71 18.45,35.54 5.37,-27.5 10.29,-90.21 37.29,-103.38 9.18,-4.48 21.79,-1.54 26.38,2.6"
         style="fill:#263c56;fill-opacity:1;fill-rule:evenodd;stroke:none"
         id="path144" />
      <path
         d="m 2871.89,3036.95 c 7.4,-23.46 -42.48,-46.7 -66.78,-14.72 l -118.96,205.61 115.14,85.51 c 13.74,-40.84 18.54,-49.42 29.54,-92.48 15.22,-59.46 30.77,-133.45 41.06,-183.92"
         style="fill:#365478;fill-opacity:1;fill-rule:evenodd;stroke:none"
         id="path146" />
      <path
         d="m 2750.63,3270.44 8.76,0.44 6.16,-47.48 c 20.75,-51.52 18.23,-168.28 17.72,-216.41 -0.08,-7.25 0.01,-14.68 0.11,-20.5 0.71,-39.49 -59.85,-25.13 -67.26,-4.24 -13.08,36.87 -16.8,54.18 -28,96.76 -19.17,72.81 -61.94,131.04 13.06,195.83 l 49.45,-4.4"
         style="fill:#41668f;fill-opacity:1;fill-rule:evenodd;stroke:none"
         id="path148" />
      <path
         d="m 2782.72,2984.39 -3.11,-249.18 -0.03,-0.05 c -0.02,-1.22 -0.6,-2.12 -1.78,-2.64 -5.46,-2.36 -21.79,4.59 -36.48,15.55 -11.63,8.68 -18.73,17.26 -18.45,21.63 -10.62,57.97 -16.16,92.42 -14.8,135.04 1.32,41.22 6.59,63 6.37,80.6 -0.5,39.9 67.5,74.11 68.28,-0.95"
         style="fill:#41668f;fill-opacity:1;fill-rule:evenodd;stroke:none"
         id="path150" />
      <path
         d="m 2733.01,3696.59 c 24.29,1.81 41.71,-1.48 49.88,-12.48 35.97,-48.48 -1.91,-107.8 27.24,-147.07 l -49.11,-5.68 -58.43,91.53 30.42,73.7"
         style="fill:#5c2114;fill-opacity:1;fill-rule:evenodd;stroke:none"
         id="path152" />
      <path
         d="m 2801.91,3511.19 c 20.31,-29 49.43,-92.72 59.39,-136.98 6.54,-29.08 -23.96,-49.82 -40.11,-27.08 -26.8,37.75 -67,99.24 -66.76,138.2 0.21,34.37 33.61,45.67 47.48,25.86"
         style="fill:#ccb9cd;fill-opacity:1;fill-rule:evenodd;stroke:none"
         id="path154" />
      <path
         d="m 2711.34,3586.22 c 1.79,-11.64 12.3,-38.23 -0.12,-67.66 l 41.6,-31.69 19.81,18.62 c -5.34,25.04 -6.54,40.2 -1.59,62.59 l -59.7,18.14"
         style="fill:#eebb66;fill-opacity:1;fill-rule:evenodd;stroke:none"
         id="path156" />
      <path
         d="m 2711.68,3526.94 c -9.77,-20.84 -20.87,-32.17 -39.1,-42.98 -33.7,-20 -10.01,-81.75 6.33,-122.65 9.29,-23.26 10.68,-41.19 10.73,-55.17 0.03,-9.69 0.45,-17.36 -4.26,-26.25 -19.07,-35.95 -33.43,-80.6 -25.3,-108.58 46.5,15.06 115.19,48.34 163.34,82.85 -6.79,21.34 -15.32,56.15 -14.45,66.33 0.78,9.14 6.79,52.75 14.75,74.73 11.69,16.09 15.57,33.43 15.1,47.63 -0.49,14.59 -29.44,70.93 -40.8,85.21 -4.74,5.96 -18.63,3.01 -27.97,-0.78 3.71,-17.16 -37.92,-32.18 -58.37,-0.34"
         style="fill:#e5d5e7;fill-opacity:1;fill-rule:evenodd;stroke:none"
         id="path158" />
      <path
         d="m 2692.25,3476.65 c 28.24,-21.35 75.56,-73.03 98.64,-112.08 15.17,-25.66 -7.48,-54.77 -29.83,-38.1 -37.12,27.68 -94.27,73.82 -106.03,110.96 -10.38,32.77 17.93,53.8 37.22,39.22"
         style="fill:#f8eaf6;fill-opacity:1;fill-rule:evenodd;stroke:none"
         id="path160" />
      <path
         d="m 2884.54,3396.56 26.84,12.2 c 26.92,-4.76 29.47,11.23 50.36,14.48 4.17,1.65 16.01,20.78 13.01,33 -11.93,2.73 -26.51,4.06 -43.08,2.04 -19.78,-15.27 -35.07,-26.3 -52.17,-44.61 l 5.04,-17.11"
         style="fill:#fcd797;fill-opacity:1;fill-rule:evenodd;stroke:none"
         id="path162" />
      <path
         d="m 2900.62,3437.33 c -34.36,-18.71 -88,-39.62 -122.44,-57.48 -14.22,-7.38 -18.1,-14.5 -32.11,-24.33 9.53,-33.02 26.44,-39.03 47.88,-28.99 30.2,14.13 93.03,58.01 118.06,78.93 l -11.39,31.87"
         style="fill:#f8eaf6;fill-opacity:1;fill-rule:evenodd;stroke:none"
         id="path164" />
      <path
         d="m 2775.25,3681.67 c 23.6,-33.96 13.71,-57.56 17.21,-85.43 1.84,-14.77 -2.12,-26.83 -5.37,-35.46 -4.61,-12.33 -10.34,-18.33 -17.47,-20.65 -13.65,-4.45 -71.4,19.64 -75.95,38.39 l -17.62,72.56 99.2,30.59"
         style="fill:#fcd797;fill-opacity:1;fill-rule:evenodd;stroke:none"
         id="path166" />
      <path
         d="m 2714.6,3588.82 c -1.36,16.15 -10.07,17.37 -13.88,16.3 -15.49,-4.4 2.22,-27.64 9.9,-38.11 13.64,-11.56 20.05,-36.76 28.57,-50.45 -55.61,9.89 -74.52,19.86 -77.7,104.32 -1.75,46.18 21.62,89.46 82.2,80.96 13.37,-1 32.14,-7.24 39.53,-27.26 15.23,-41.24 -56.2,-51.98 -68.62,-85.76"
         style="fill:#5c2114;fill-opacity:1;fill-rule:evenodd;stroke:none"
         id="path168" />
      <path
         d="m 2716.8,3228.02 c -43.08,-24.87 -66.67,-51.62 -52.68,-59.75 13.97,-8.12 60.24,5.46 103.31,30.32 43.08,24.88 66.68,51.63 52.69,59.75 -13.98,8.13 -60.24,-5.44 -103.32,-30.32"
         style="fill:#e5d5e7;fill-opacity:1;fill-rule:evenodd;stroke:none"
         id="path170" />
      <path
         d="m 2753.19,1819.39 c -96.45,16.41 -161.77,-66.25 -161.34,-141.56 0.38,-66.75 61.15,-115.18 116.98,-157.89 74.02,-56.63 171.64,-92.52 263.09,-67.65 52.7,14.34 107.7,65.24 95.5,134.83 -11.11,63.32 -251.1,221.53 -314.23,232.27"
         style="fill:#bcc6de;fill-opacity:1;fill-rule:evenodd;stroke:none"
         id="path172" />
      <path
         d="m 3041.8,2568.92 c 6.18,6.15 14.86,6.83 30.87,17.21 11.04,9.08 18.84,10.2 23.08,7.9 3.32,-1.8 5.57,-4.93 -2.1,-13.39 l -18.74,-17.71 19.83,-1.31 11.69,2.42 27.55,21.5 c 8.46,7.47 11.51,1.39 18.5,-8.71 10.28,-12.71 -8.25,-27.29 -25.73,-45.68 -16.99,-14.13 -14.5,-17.53 -36.12,-16.8 l -33.69,1.12 -15.05,-17.42 -31.77,28.87 c 4.35,3.77 12.92,10.05 16.22,14.65 7.51,10.47 7.38,19.3 15.46,27.35"
         style="fill:#fcd797;fill-opacity:1;fill-rule:evenodd;stroke:none"
         id="path174" />
      <path
         d="m 3028.33,2548.98 c 14.11,-3.76 25.92,-28.84 29.41,-37.9 l -116.37,-99.8 c -16.22,-14.76 -53.53,-30.29 -72.46,-10 -18.74,20.1 -4.96,35.19 2.15,47.26 25.9,43.99 105.29,64.08 157.27,100.44"
         style="fill:#9bafad;fill-opacity:1;fill-rule:evenodd;stroke:none"
         id="path176" />
      <path
         d="m 2827.29,2330.65 c 7.24,58.49 14.38,64.49 45.75,55.73 60.93,-17.03 114.02,-58.89 103.67,-98.87 -6.71,-25.95 -15.95,-28.55 -37.4,-23.53 -37.4,8.76 -91.47,54.25 -112.02,66.67"
         style="fill:#9bafad;fill-opacity:1;fill-rule:evenodd;stroke:none"
         id="path178" />
      <path
         d="m 2756.23,1692.29 -33.88,-25.91 c 0.41,-31.18 0.33,-46.53 12.41,-54.64 14.7,-9.88 39.51,-1.92 54.52,4.96 l 4.04,12.07 c 14.4,2.01 11.18,-2.3 26.78,6.35 26.13,14.5 64.52,36.89 69.64,62.81 1.32,6.64 -3.79,18.59 -10.46,17.44 l -75.73,-13.12 -47.32,-9.96"
         style="fill:#141e2c;fill-opacity:1;fill-rule:evenodd;stroke:none"
         id="path180" />
      <path
         d="m 2725.42,1625.08 c 1.55,-5.53 4.35,-9.83 8.71,-13.03 14.25,-10.49 39.85,-2.28 55.44,4.72 l 4.08,11.74 c 20.54,1.98 14.92,-1.16 35.82,9.67 25.27,13.1 56.01,31.56 61.56,54.47 1.15,4.74 -0.91,12.35 -4.67,15.92 0.51,-2.43 0.57,-4.85 0.1,-6.78 -5.55,-22.91 -36.29,-41.38 -61.56,-54.47 -20.9,-10.84 -15.28,-7.7 -35.82,-9.68 l -4.54,-11.89 c -15.29,-6.24 -40.87,-14.9 -55.13,-4.4 -1.53,1.11 -2.85,2.36 -3.99,3.73"
         style="fill:#d3dee0;fill-opacity:1;fill-rule:evenodd;stroke:none"
         id="path182" />
      <path
         d="m 2838.32,1645.25 -34.94,-24.45 c -0.91,-31.17 -1.64,-46.5 10.09,-55.13 14.26,-10.48 39.4,-3.57 54.68,2.66 l 4.54,11.89 c 20.55,1.99 14.91,-1.15 35.82,9.68 25.27,13.1 56.02,31.56 61.56,54.47 1.6,6.58 -2.99,18.68 -9.71,17.87 l -74.34,-9.04 -47.7,-7.95"
         style="fill:#1d3459;fill-opacity:1;fill-rule:evenodd;stroke:none"
         id="path184" />
      <path
         d="m 2804.92,1578.55 c 1.55,-5.53 4.19,-9.66 8.55,-12.88 14.26,-10.48 39.4,-3.57 54.68,2.66 l 4.54,11.89 c 20.55,1.99 14.91,-1.15 35.82,9.68 25.27,13.1 56.02,31.56 61.56,54.47 1.16,4.74 -0.9,12.35 -4.66,15.92 0.5,-2.43 0.56,-4.85 0.09,-6.78 -5.54,-22.91 -36.29,-41.38 -61.56,-54.47 -20.9,-10.83 -15.27,-7.7 -35.82,-9.67 l -4.54,-11.9 c -15.28,-6.24 -40.42,-13.15 -54.68,-2.66 -1.53,1.13 -2.85,2.37 -3.98,3.74"
         style="fill:#d3dee0;fill-opacity:1;fill-rule:evenodd;stroke:none"
         id="path186" />
      <path
         d="m 2697.75,2492.53 c 33.37,-44.35 117.71,-75.3 168.62,-97.03 45.84,-19.56 65.99,40.19 31.39,64.16 l -111.15,82.69 c -36.69,20.14 -64.29,20.18 -81.64,12.42 -31.34,-14.04 -21.09,-43.8 -7.22,-62.24"
         style="fill:#9bafad;fill-opacity:1;fill-rule:evenodd;stroke:none"
         id="path188" />
      <path
         d="m 2698.61,2246.76 c -2.78,-29.07 -13.54,-86.05 -13.52,-103.06 2.83,-88.36 17.23,-160.91 21.8,-249.15 l 12.35,-238.35 0.04,-0.11 c -0.24,-1.97 0.47,-3.54 2.26,-4.58 7.98,-4.64 34.42,3.12 59.03,17.33 10.2,5.88 18.47,11.95 24.11,17.37 2.95,1.95 5.97,4 9.05,6.16 l -14.73,423.9 -5.75,103.44 -94.64,27.05"
         style="fill:#222026;fill-opacity:1;fill-rule:evenodd;stroke:none"
         id="path190" />
      <path
         d="m 2782.53,2194.81 c -3,-29.07 -23.11,-56.8 -22.4,-86 9.45,-92.01 28.36,-177.3 31.05,-265.6 l 7.14,-234.78 0.35,0.17 c 0.14,-1.39 0.89,-2.53 2.27,-3.33 7.98,-4.65 34.43,3.12 59.04,17.33 23.58,13.61 36.95,28.21 31,33.5 l -1.82,418.17 -21.33,102.62 -85.3,17.92"
         style="fill:#2e2b36;fill-opacity:1;fill-rule:evenodd;stroke:none"
         id="path192" />
      <path
         d="m 2716.4,2557.35 c -3.2,-0.67 -7.26,-3.3 -11.6,-5.59 -68.78,-36.29 -2.68,-216.65 -5.49,-284.34 -0.89,-21.53 -11.38,-61.52 -13.98,-104.07 8.42,-34.47 124.86,-106.59 195.21,-37.6 -0.93,52.1 23.21,259.53 33.55,311.38 5.96,29.95 -25.24,70.89 -80.07,97.54 -35.35,17.19 -91.23,31.64 -117.62,22.68"
         style="fill:#afc9c4;fill-opacity:1;fill-rule:evenodd;stroke:none"
         id="path194" />
      <path
         d="m 2754.46,2624.62 c 6.06,-51.19 7.48,-47.45 -2.06,-86.72 -4.96,-20.43 63.08,-19.14 72.73,-10.11 -0.26,46.36 5.1,63.37 23.47,125.69 l -94.14,-28.86"
         style="fill:#eebb66;fill-opacity:1;fill-rule:evenodd;stroke:none"
         id="path196" />
      <path
         d="m 2871.97,2692.64 c 6.07,-14.09 9.51,-25.49 8.24,-43.29 -1.02,-14.35 -4.79,-35.36 -7.56,-49.47 -2.28,-11.71 -8.15,-54.84 -17.7,-59.05 -6.79,-3 -40.56,10.97 -51.73,24.56 -8.1,9.86 0.99,34.55 -2.72,40.33 l 28.86,85.89 42.61,1.03"
         style="fill:#fcd797;fill-opacity:1;fill-rule:evenodd;stroke:none"
         id="path198" />
      <path
         d="m 2769.74,2718.26 c -37.17,-10.75 -40.7,-65.48 -24.18,-101.71 7.44,-16.27 11.58,-26.69 12.34,-54.81 23.73,-9.71 37.62,-5.24 55.86,17.63 18.22,22.81 16.66,49.01 30.71,49.45 5.76,0.17 10.25,-7.37 6.87,-29.63 6.14,11.64 25.75,78.36 45,83.6 -4.19,16.7 -20.37,26.71 -38.7,35.51 -30.19,14.48 -69.11,20.43 -87.9,-0.04"
         style="fill:#2c1713;fill-opacity:1;fill-rule:evenodd;stroke:none"
         id="path200" />
      <path
         d="m 2753.21,2560.08 c 5.05,-17.25 52.57,-26.6 72.08,-18.56 l 2.87,-16.08 c -18.4,-25.5 -80.78,-17.21 -79.26,14.04 l 4.31,20.6"
         style="fill:#fafdfd;fill-opacity:1;fill-rule:evenodd;stroke:none"
         id="path202" />
      <path
         d="m 2921.32,2471.62 c 56.33,-152.69 71.01,-189.75 40.16,-208.1 -53.36,-19.07 -106.07,120.38 -111.73,164.76 -7.6,59.62 33.72,92.74 71.57,43.34"
         style="fill:#c3ddd9;fill-opacity:1;fill-rule:evenodd;stroke:none"
         id="path204" />
      <path
         d="m 2770.27,2718.66 c 12.13,16.94 39.09,18.79 50.87,15.53 -6.34,-0.66 -9.36,-1.24 -13.4,-3.27 18.3,3.52 32.03,3.86 45.38,-3.42 -6.88,0.72 -15.19,1.16 -19.34,-0.31 18.3,0 28.01,-5.24 37.77,-13.1 -9.88,2.41 -15.25,3.12 -18.43,1.07 l -82.85,3.5"
         style="fill:#2c1713;fill-opacity:1;fill-rule:evenodd;stroke:none"
         id="path206" />
      <path
         d="m 2770.41,2718.49 c -30.37,0.92 -44.28,-43.78 -37.08,-67.01 0.46,6.35 2.23,10.88 4.14,14.93 -4.69,-17.39 -5.89,-32.95 1.84,-46.3 -0.96,6.88 0.31,12.75 1.66,16.91 l 13.77,-16 15.67,97.47"
         style="fill:#2c1713;fill-opacity:1;fill-rule:evenodd;stroke:none"
         id="path208" />
      <path
         d="m 3607.6,3004.56 -103.76,-58.73 c -34.07,-20.42 -4.81,-70.9 27.68,-60.81 l 153.98,53.9 c 71.18,43.98 46.8,78.67 17.35,93.63 -33.83,10.78 -74.76,-15.87 -95.25,-27.99"
         style="fill:#aecfeb;fill-opacity:1;fill-rule:evenodd;stroke:none"
         id="path210" />
      <path
         d="m 3765.07,2142.24 c -6.39,-22.03 -11.73,-27.73 -21.4,-37.59 -7.26,-7.39 -46.45,-32.33 -49.22,-39.52 -2.12,-5.5 -2.23,-14.61 6.37,-20.12 9.13,-5.85 26.67,-5.63 38.78,-3.78 25.43,3.88 45.29,18.75 65.53,33.8 2.05,-2.08 11.15,1.01 19.67,6.01 6.95,4.07 10.47,7.54 11.35,14.12 0.6,4.46 -0.34,14.32 -0.92,19.16 -1.59,13.17 -7.17,23.52 -13.06,36.89 l -25.2,5.69 -31.9,-14.66"
         style="fill:#4b9ddb;fill-opacity:1;fill-rule:evenodd;stroke:none"
         id="path212" />
      <path
         d="m 3693.4,2060.96 c -0.68,-5.25 0.76,-11.68 7.42,-15.95 9.12,-5.85 26.66,-5.63 38.78,-3.78 25.43,3.88 45.29,18.75 65.53,33.8 2.05,-2.08 11.15,1.01 19.67,6.01 6.95,4.07 10.47,7.54 11.35,14.12 0.32,2.34 0.2,6.17 -0.06,9.98 -3.18,-9.73 -23.55,-19.39 -33.34,-19.76 -20.25,-15.05 -40.18,-29.06 -65.62,-32.94 -12.12,-1.84 -29.65,-2.07 -38.79,3.78 -2.15,1.39 -3.77,3.01 -4.94,4.74"
         style="fill:#1c2e3b;fill-opacity:1;fill-rule:evenodd;stroke:none"
         id="path214" />
      <path
         d="m 3702.22,2179.19 c -6.4,-22.02 -11.73,-27.73 -21.41,-37.59 -7.25,-7.39 -46.44,-32.32 -49.22,-39.53 -2.12,-5.5 -2.22,-14.61 6.36,-20.11 9.13,-5.85 26.67,-5.62 38.79,-3.78 25.44,3.88 45.29,18.75 65.53,33.8 2.06,-2.08 11.16,1.02 19.68,6.01 6.94,4.07 10.46,7.55 11.35,14.12 0.59,4.46 -0.36,14.33 -0.93,19.16 -1.59,13.17 -7.17,23.52 -13.06,36.89 l -25.19,5.7 -31.9,-14.67"
         style="fill:#4b9ddb;fill-opacity:1;fill-rule:evenodd;stroke:none"
         id="path216" />
      <path
         d="m 3630.54,2097.91 c -0.68,-5.24 0.75,-11.68 7.41,-15.95 9.13,-5.85 26.67,-5.62 38.79,-3.78 25.44,3.88 45.29,18.75 65.53,33.8 2.06,-2.08 11.16,1.02 19.68,6.01 6.95,4.07 10.46,7.55 11.35,14.12 0.31,2.34 0.2,6.17 -0.06,9.98 -3.2,-9.73 -23.56,-19.38 -33.35,-19.76 -20.25,-15.04 -40.17,-29.06 -65.61,-32.94 -12.12,-1.84 -29.66,-2.07 -38.79,3.78 -2.16,1.39 -3.78,3.01 -4.95,4.74"
         style="fill:#1c2e3b;fill-opacity:1;fill-rule:evenodd;stroke:none"
         id="path218" />
      <path
         d="m 3764.47,2693.55 c 6.31,-29.62 13.86,-55.3 16.13,-85.22 4.28,-56.36 -20.94,-149.22 -24.55,-210.34 l 2.28,-44.36 c 4.66,-46.03 2.17,-94.51 6.13,-165.34 0.36,-2.15 0.44,-4.27 0.26,-6.36 9.26,-7.43 1.97,-21.64 -17.4,-32.82 -20.56,-11.87 -46.94,-15.85 -58.94,-8.88 -3.31,1.93 -5.17,4.49 -5.71,7.43 l -0.07,0.09 c -1.3,1.86 -9.83,261.7 -13.54,293.79 -3.61,90.96 -3.88,173.7 -7,270.67 l 102.41,-18.66"
         style="fill:#172742;fill-opacity:1;fill-rule:evenodd;stroke:none"
         id="path220" />
      <path
         d="m 3833.02,2678.44 c 5.4,-47.82 16.75,-70.63 7.43,-121.85 -9.28,-51.08 -16.24,-108.54 -19.3,-160.33 l 7.46,-66.81 c 4.67,-46.03 -1.62,-120.59 2.33,-191.42 v -0.01 c 2.34,-7.81 -5.43,-18.74 -20.98,-27.72 -20.55,-11.87 -46.95,-15.84 -58.93,-8.87 -3.54,2.06 -5.44,4.84 -5.81,8.05 l -0.11,0.28 -16.99,305.02 c -3.61,90.96 -6.47,163.33 -9.6,260.29 l 114.5,3.37"
         style="fill:#1e335b;fill-opacity:1;fill-rule:evenodd;stroke:none"
         id="path222" />
      <path
         d="m 3867.71,2924.38 c 4.1,-27.36 -14.29,-77.2 -17.41,-103.16 -5.41,-44.97 -9.67,-68.96 -10.07,-125.08 -0.1,-14.25 3.38,-53.19 4.58,-83.66 1.37,-9.46 -2.52,-17.74 -12.31,-23.42 -25.67,-14.92 -82.16,-6.42 -126.17,18.99 -28.13,16.24 -44.36,35.47 -45.71,51.12 l -0.05,0.07 -22.66,235.6 c -5.29,54.88 -6.66,117.07 29.98,133.49 28.75,16.71 82.33,9.36 131.62,-19.1 44.13,-25.48 70.21,-57.08 68.2,-84.85"
         style="fill:#cbe3f5;fill-opacity:1;fill-rule:evenodd;stroke:none"
         id="path224" />
      <path
         d="m 3773.72,3061.5 c 1.56,-16.44 4.52,-36.96 4.75,-52.38 0.46,-28.49 -57.86,-40.33 -65.25,-15.14 -0.92,14.29 -3.85,28.92 -5.28,43.01 l 65.78,24.51"
         style="fill:#eebb66;fill-opacity:1;fill-rule:evenodd;stroke:none"
         id="path226" />
      <path
         d="m 3678.9,3103.68 c 1.52,-20.9 -2.48,-29.48 10.51,-63.04 3.85,-9.93 9.98,-22.01 13.03,-23.85 4.01,-2.44 15.68,-8.75 20.54,-7.8 9.68,1.92 29.6,14.93 36.91,19.1 16.12,9.19 14.81,13.84 17.45,33.55 l 7.32,28.34 -7.8,55.59 c -33.61,8.8 -63.12,14.37 -78.54,7.87 -15.51,-6.52 -22.42,-8.74 -19.42,-49.76"
         style="fill:#fcd797;fill-opacity:1;fill-rule:evenodd;stroke:none"
         id="path228" />
      <path
         d="m 3770.15,3166.68 c 18.24,-4.53 29.67,-26.34 29.08,-50.09 -0.58,-23.41 -12.76,-46.92 -22.8,-64.64 -1.85,16.22 4.83,33.62 -2.63,37.86 -4.13,2.36 -16.5,1.73 -21.99,-20.32 -4.75,14.45 -3.45,18.35 -5.85,32.14 -3.13,43.22 -63.78,-0.67 -77.57,41.26 10.17,6.2 15.3,23.18 32.8,32.25 18.75,9.7 54.4,8.32 68.96,-8.46"
         style="fill:#100f0d;fill-opacity:1;fill-rule:evenodd;stroke:none"
         id="path230" />
      <path
         d="m 3821.17,2601.36 c -4.31,-8.7 -7.42,-10.6 -12.36,-18.15 -4.92,-7.56 -2.65,-27.73 -2.97,-34.04 -0.33,-6.76 8.89,-10.13 10.23,-1.29 0.97,6.36 -1.48,15.31 4.5,18.49 1.01,-7.03 -1.51,-20.03 -2.53,-24.12 -2.6,-10.47 -14.35,5.49 -12.75,-11.38 3.6,-1.59 7.56,-3.84 16.18,-5.82 6.97,-1.6 10.79,-2.63 17.84,-1.14 9.52,2.01 18.67,2.47 23.97,9.92 l 1.16,32.75 3.51,31.4 -46.78,3.38"
         style="fill:#fcd797;fill-opacity:1;fill-rule:evenodd;stroke:none"
         id="path232" />
      <path
         d="m 3834.46,2976.9 c 14.68,-11.99 26.96,-24.53 30.56,-33.23 18.71,-45.13 11.91,-110.06 18.92,-174.17 l -10.58,-175.52 c -14.24,-6.66 -45.96,-8.32 -57.1,1.42 l 4.23,175.51 -25.49,101.27 c -7.09,65.32 19.76,112.96 39.46,104.72"
         style="fill:#ddf0fb;fill-opacity:1;fill-rule:evenodd;stroke:none"
         id="path234" />
      <path
         d="m 3430.42,3032.47 -1.52,0.05 c -9.77,8.22 -14.69,11.33 -19.52,16.52 -5.88,6.32 -10.76,13.82 -16.47,27.99 -2.81,6.95 -3.83,7.65 -10.52,11.06 l -14.01,7.13 c -8.79,4.59 -9.92,3.24 -20.28,2.94 -8.26,-0.23 -17.37,-0.77 -17.04,-6.49 0.32,-5.5 8.14,-6.18 16.51,-8.19 3.72,-13.3 7.46,-22.96 7.85,-36.81 10.61,-14.56 15.16,-23.68 26.22,-27.42 3.9,-1.32 8.04,-0.85 14.19,-0.79 l 20.15,-24.45 14.44,38.46"
         style="fill:#fcd797;fill-opacity:1;fill-rule:evenodd;stroke:none"
         id="path236" />
      <path
         d="m 3331.31,3090.34 c 1.44,-4.3 8.63,-5.02 16.26,-6.86 0.33,-1.26 4.04,-6.03 3.34,-6.69 -1.32,-1.26 -7.8,2.04 -8.02,0.16 -0.92,-7.59 -1.25,-16.71 0.78,-26.68 0.76,-1.04 13.24,-5.67 13.94,-6.66 9.1,-12.78 13.76,-20.89 24.03,-24.36 2.84,-0.96 5.8,-0.97 9.58,-0.89 -3.72,15.16 -1.01,42.98 -8.24,54.79 -3.73,6.09 -8.73,10.91 -24.58,17.26 -12.38,0.98 -22.01,1.47 -27.09,-0.07"
         style="fill:#eebb66;fill-opacity:1;fill-rule:evenodd;stroke:none"
         id="path238" />
      <path
         d="m 3336.54,3135.17 33.63,-72.98 c 5.35,-11.61 -10.95,-13.78 -14.27,-6.55 l -33.63,72.98 c -3.95,8.6 9.38,17.15 14.27,6.55"
         style="fill:#27296c;fill-opacity:1;fill-rule:evenodd;stroke:none"
         id="path240" />
      <path
         d="m 3326.02,3145.18 11.86,-25.71 c 1.88,-4.09 -3.86,-4.85 -5.03,-2.3 l -11.85,25.71 c -1.4,3.02 3.3,6.04 5.02,2.3"
         style="fill:#27296c;fill-opacity:1;fill-rule:evenodd;stroke:none"
         id="path242" />
      <path
         d="m 3357.08,3064.11 c -4.59,1.34 -11.48,3.67 -14.37,6.4 -1.38,1.31 -1.24,4.47 -0.83,6.55 0.4,2.09 0.11,2.88 4.48,1.87 3.05,-0.71 7.39,-2.31 10.53,-3.95 6.18,-3.23 8.74,-13.36 0.19,-10.87"
         style="fill:#f6c77c;fill-opacity:1;fill-rule:evenodd;stroke:none"
         id="path244" />
      <path
         d="m 3359.28,3050.97 c -4.6,1.11 -13.62,5.59 -16.51,8.17 -1.39,1.23 -1.24,4.4 -0.83,6.49 0.4,2.1 0.8,3.16 3.65,2.12 2.91,-1.06 10.36,-4.47 13.51,-5.94 6.19,-2.9 8.75,-12.89 0.18,-10.84"
         style="fill:#fcd797;fill-opacity:1;fill-rule:evenodd;stroke:none"
         id="path246" />
      <path
         d="m 3357.39,3042.17 c -3.67,0.88 -10.87,4.46 -13.19,6.52 -1.1,0.98 -0.98,3.51 -0.66,5.18 0.32,1.68 0.64,2.52 2.92,1.7 2.32,-0.85 8.26,-3.58 10.78,-4.75 4.61,-2.17 6.7,-9.27 1.37,-8.85 -0.37,0.03 -0.78,0.09 -1.22,0.2"
         style="fill:#fcd797;fill-opacity:1;fill-rule:evenodd;stroke:none"
         id="path248" />
      <path
         d="m 3381.55,3080.01 c -8.36,-2.64 -19.48,2.31 -27.3,10.3 -3.3,3.37 -6.53,6.77 -9.39,8.21 -1.87,0.63 -3.63,0.56 -5.14,-0.61 -2.68,-2.12 -2.64,-11.92 6.48,-19.09 l 14.36,-11.31 c 6.09,-21.96 10.89,-28.18 33.34,-34.51 l 11.61,14.21 -13.03,23.14 -10.93,9.66"
         style="fill:#fcd797;fill-opacity:1;fill-rule:evenodd;stroke:none"
         id="path250" />
      <path
         d="m 3536.3,2941.72 -120.39,106.82 c -14.84,-5.23 -29.82,-17.9 -30.94,-32.65 l 107.05,-119.62 c 35.1,-30.55 80.08,2.08 44.28,45.45"
         style="fill:#aecfeb;fill-opacity:1;fill-rule:evenodd;stroke:none"
         id="path252" />
      <path
         d="m 3200.85,1536.03 c -96.43,16.4 -161.75,-66.25 -161.32,-141.57 0.38,-66.75 61.15,-115.18 116.97,-157.89 74.02,-56.63 171.65,-92.52 263.08,-67.64 52.72,14.33 107.72,65.23 95.5,134.82 -11.1,63.32 -251.08,221.53 -314.23,232.28"
         style="fill:#bcc6de;fill-opacity:1;fill-rule:evenodd;stroke:none"
         id="path254" />
      <path
         d="m 3240.32,2032.71 h 9.43 l -1.57,-86.5 c 2.56,-50.1 11.66,-148.58 13.18,-198.27 0.98,-31.93 -7.12,-47.8 -6.11,-71.59 2.88,-67.62 -5.96,-133.88 -7.07,-203.65 5.37,-49.75 13.4,-85.05 27.27,-98.72 2.57,-2.53 6.85,-7.34 15.59,-4.5 0.93,0.3 1.57,-1.11 2.12,-2.02 l -33.74,-26.79 -53.2,102.54 c -0.71,5.13 -4.53,9.69 -2.58,14.27 1.63,3.82 6.64,12.31 5.03,21.54 -13.7,78.31 -27.85,135.79 -25.75,187.11 4.11,100.5 -0.04,98.98 -10.85,161.71 -16.65,96.72 -4.77,28.05 -1.51,66.51 2.5,29.39 7.85,66.91 32.01,141.5 l 37.75,-3.14"
         style="fill:#eebb66;fill-opacity:1;fill-rule:evenodd;stroke:none"
         id="path256" />
      <path
         d="m 3257.63,1384 c -7.65,18.44 -14.95,35.32 -22.62,49.5 -3.43,6.35 -9.17,27.17 -30.88,26.02 -14.35,-13.28 -17.37,-32.13 -11.7,-52.9 7.15,-26.18 8.87,-49.08 11.07,-79.39 l 3.77,-1.89 2.82,1.62 c 0,31.87 -3.88,36.34 4.23,68.39 13.55,-9.47 12.78,-23.14 15.24,-39.15 0.62,-4.09 0.57,-6.14 7.17,-11.23 8.27,-6.37 25.41,-14.27 27.37,-13.96 4.11,0.23 14.87,6.61 20.05,9.71 9.29,5.59 17.28,14.34 14.83,21.25 -2.78,7.85 -7.83,7.4 -8.1,7.48 -0.85,-4.65 -13.15,-10.71 -16.46,-8.13 -4.5,3.47 -12.99,13.52 -16.79,22.68"
         style="fill:#1e335b;fill-opacity:1;fill-rule:evenodd;stroke:none"
         id="path258" />
      <path
         d="m 3287.39,2313.54 c 51.63,-29.81 79.88,-69.02 63.12,-78.75 -16.74,-9.74 -72.18,6.53 -123.8,36.33 -51.63,29.81 -79.9,61.87 -63.14,71.6 16.76,9.74 72.19,0.62 123.82,-29.18"
         style="fill:#1e335b;fill-opacity:1;fill-rule:evenodd;stroke:none"
         id="path260" />
      <path
         d="m 3170.47,2261.82 c -2.36,42.58 2.27,81.74 32.17,76.38 30.57,-5.49 90.28,-50.43 123.71,-67.93 l -48.94,-15.92 -106.94,7.47"
         style="fill:#1e335b;fill-opacity:1;fill-rule:evenodd;stroke:none"
         id="path262" />
      <path
         d="m 3169.12,2338.14 c -25.61,-21.58 -20.89,-157.39 -23.19,-188.9 l 13.5,-139.28 c 11.5,-5.29 36.72,-6.61 45.27,1.11 l -8.45,139.28 17.29,80.36 c 3.72,51.84 -29.04,113.97 -44.42,107.43"
         style="fill:#172742;fill-opacity:1;fill-rule:evenodd;stroke:none"
         id="path264" />
      <path
         d="m 3314.62,1991.04 h 9.44 l -1.57,-86.5 c 2.54,-50.1 11.66,-148.58 13.18,-198.28 0.98,-31.93 -7.12,-47.8 -6.11,-71.58 2.88,-67.63 -5.96,-133.89 -7.07,-203.65 5.37,-49.76 13.39,-85.06 27.27,-98.73 2.57,-2.52 6.84,-7.33 15.59,-4.5 0.92,0.31 1.57,-1.11 2.11,-2.01 l -33.73,-26.79 -53.21,102.54 c -0.7,5.13 -4.52,9.68 -2.58,14.27 1.64,3.82 6.64,12.3 5.03,21.53 -13.7,78.31 -27.85,135.8 -25.75,187.11 4.11,100.5 -0.04,98.99 -10.85,161.71 -16.65,96.72 -4.77,28.05 -1.5,66.52 2.5,29.38 7.85,66.91 32.01,141.5 l 37.74,-3.14"
         style="fill:#fcd797;fill-opacity:1;fill-rule:evenodd;stroke:none"
         id="path266" />
      <path
         d="m 3172.71,2067.61 c -12.18,-15.78 -14.98,-20.65 -21.95,-50.48 -12.09,-51.81 6.48,-161.71 22.12,-253.92 4.12,-50.63 140.34,-109.41 167.06,-54.53 16.61,213.98 8.14,259.41 -5.26,303.63 -7.29,24.09 -19.22,48.88 -18.29,59.69 -29.4,-26.84 -101.54,-30.91 -143.68,-4.39"
         style="fill:#172742;fill-opacity:1;fill-rule:evenodd;stroke:none"
         id="path268" />
      <path
         d="m 3331.93,1342.32 c -7.66,18.44 -14.94,35.33 -22.62,49.51 -3.43,6.34 -9.16,27.16 -30.88,26.01 -14.34,-13.28 -17.36,-32.12 -11.7,-52.89 7.15,-26.18 8.87,-49.09 11.07,-79.39 l 3.78,-1.9 2.83,1.63 c 0,31.86 -3.9,36.34 4.22,68.39 13.54,-9.48 12.78,-23.14 15.23,-39.16 0.63,-4.09 0.58,-6.13 7.18,-11.22 8.26,-6.38 25.41,-14.27 27.36,-13.97 4.11,0.23 14.88,6.61 20.05,9.72 9.3,5.59 17.29,14.34 14.84,21.25 -2.79,7.85 -7.84,7.41 -8.11,7.48 -0.85,-4.65 -13.14,-10.71 -16.46,-8.14 -4.5,3.48 -12.98,13.53 -16.79,22.68"
         style="fill:#1e335b;fill-opacity:1;fill-rule:evenodd;stroke:none"
         id="path270" />
      <path
         d="m 3316.17,2276.08 c 69.22,-32.29 20.17,-99.95 5.64,-206.59 -1.74,-12.72 17.73,-64.28 22.27,-91.85 -7.86,-56.94 -214.33,4.86 -178.91,80.3 9.4,14.39 26.84,32.78 21.76,78.11 -3.98,35.45 -10.76,45.6 -15.49,76.98 -3.28,21.76 -16.25,107.86 22.64,106.21 13.94,-0.6 101.9,-33.74 122.09,-43.16"
         style="fill:#1e335b;fill-opacity:1;fill-rule:evenodd;stroke:none"
         id="path272" />
      <path
         d="m 3291.68,2353.06 c -1.43,-9.46 -7.32,-28 -5.69,-50.27 0.68,-9.28 -0.18,-18.72 -17.55,-18.55 -21.13,0.2 -48.08,10.69 -47.18,27.61 -0.07,0.08 -1.54,28.69 -2.06,31.04 l 72.48,10.17"
         style="fill:#eebb66;fill-opacity:1;fill-rule:evenodd;stroke:none"
         id="path274" />
      <path
         d="m 3303.84,2462.25 c 7.33,-13.67 17.17,-15.78 17.41,-33.8 0.19,-14.27 1.08,-92.48 -24.76,-109.26 -9,-5.85 -32.46,7.64 -46.83,19.87 -9.82,8.35 -6.14,24.03 -10.37,29.52 l 21.73,88.99 42.82,4.68"
         style="fill:#fcd797;fill-opacity:1;fill-rule:evenodd;stroke:none"
         id="path276" />
      <path
         d="m 3198.69,2479.3 c -34.35,-24.94 -35.39,-69.43 -15.66,-104.51 9.65,-17.11 11.83,-22.15 26.87,-29.74 6.89,-3.49 17.57,-11.17 29.18,-10.64 13.93,0.65 28.37,59.56 42.53,61.2 5.78,0.67 10.94,-6.55 9.46,-29.25 9.35,22.14 17.42,28.99 31.62,47.1 23.81,70.41 -89.65,110.31 -124,65.84"
         style="fill:#2c1713;fill-opacity:1;fill-rule:evenodd;stroke:none"
         id="path278" />
      <path
         d="m 3425.22,2200.11 11.14,27.65 c -5.17,33.83 6.76,37.28 25.6,63.17 0,0 10.18,14.17 17.26,21.76 4.66,4.99 8.93,5.68 12.27,3.65 2.89,-1.76 5.46,-5.53 2.58,-10.93 -4.63,-8.68 -12.47,-16.67 -17.67,-25.63 22.09,-9 29.23,-14.53 27.87,-25.15 -0.91,-7.14 -5.1,-15.56 -10.04,-23.85 -8.28,-13.94 -6.87,-13.47 -21.13,-20.35 l -11.55,-27.66 -36.33,17.34"
         style="fill:#fcd797;fill-opacity:1;fill-rule:evenodd;stroke:none"
         id="path280" />
      <path
         d="m 3373.26,2219.35 c -10.6,23.9 -21.81,38.14 -33.41,43.85 -36.42,17.94 -53.78,-24 -38.04,-60.27 14.99,-34.52 41.63,-83.73 60.35,-119.53 17.18,-32.85 36.24,-33.9 47.84,-25.85 11.48,7.97 17.44,25.65 1.68,60.97 -17.35,38.87 -21.05,61.68 -38.42,100.83"
         style="fill:#224279;fill-opacity:1;fill-rule:evenodd;stroke:none"
         id="path282" />
      <path
         d="m 3432.55,2226.25 c 19.71,-11.99 21.25,-12.17 41.67,-21.07 l -42.37,-119.3 c -11.85,-32.41 -32.81,-39.77 -46.7,-31.11 -13.54,8.43 -20.37,32.1 -5.45,62.63 l 52.85,108.85"
         style="fill:#224279;fill-opacity:1;fill-rule:evenodd;stroke:none"
         id="path284" />
      <path
         d="m 3109.05,2297.49 c 36.22,-22.32 58.45,-36.11 77.2,-17.17 37.27,37.64 45.42,138.21 20.86,185.27 -3.59,6.88 -2.53,9.03 -0.24,7.58 5.96,0.44 23.87,19.07 17.76,22.99 -72.96,46.87 -104.33,-0.61 -102.73,-45.1 3.84,-106.39 36.67,-136.22 -12.85,-153.57"
         style="fill:#3e1b15;fill-opacity:1;fill-rule:evenodd;stroke:none"
         id="path286" />
      <path
         d="m 3220.52,2499.35 c 6.33,-2.46 11.73,-3.49 13.23,-7.99 2.53,-7.65 -3.76,-21.45 -9.56,-25.97 -4.46,-3.49 -15.54,3.16 -19.77,8.15 10.06,2.98 16.64,16.33 16.1,25.81"
         style="fill:#224279;fill-opacity:1;fill-rule:evenodd;stroke:none"
         id="path288" />
      <path
         d="m 3459.74,2219.3 c 11.09,-6.41 17.17,-13.3 13.58,-15.39 -3.61,-2.1 -15.52,1.4 -26.62,7.81 -11.1,6.4 -17.17,13.29 -13.57,15.39 3.6,2.09 15.52,-1.41 26.61,-7.81"
         style="fill:#224279;fill-opacity:1;fill-rule:evenodd;stroke:none"
         id="path290" />
      <path
         d="m 1389.44,3203.12 -169.97,98.78 -122.02,-70.45 169.97,-98.77 122.02,70.44"
         style="fill:#6c80b1;fill-opacity:1;fill-rule:evenodd;stroke:none"
         id="path292" />
      <path
         d="m 1314.31,3276.01 -80.52,46.79 0.33,-113.61 80.51,-46.78 -0.32,113.6"
         style="fill:#d0d4d0;fill-opacity:1;fill-rule:evenodd;stroke:none"
         id="path294" />
      <path
         d="m 1339.17,3290.36 -80.52,46.79 -24.86,-14.35 80.52,-46.79 24.86,14.35"
         style="fill:#ffffff;fill-opacity:1;fill-rule:evenodd;stroke:none"
         id="path296" />
      <path
         d="m 1314.31,3276.01 0.32,-113.6 24.85,14.35 -0.31,113.6 -24.86,-14.35"
         style="fill:#f7f7f7;fill-opacity:1;fill-rule:evenodd;stroke:none"
         id="path298" />
      <path
         d="m 1279.12,3256.35 -80.52,46.78 0.33,-113.6 80.5,-46.79 -0.31,113.61"
         style="fill:#3aa0a9;fill-opacity:1;fill-rule:evenodd;stroke:none"
         id="path300" />
      <path
         d="m 1303.97,3270.7 -80.51,46.79 -24.86,-14.36 80.52,-46.78 24.85,14.35"
         style="fill:#60cad5;fill-opacity:1;fill-rule:evenodd;stroke:none"
         id="path302" />
      <path
         d="m 1279.12,3256.35 0.31,-113.61 24.86,14.35 -0.32,113.61 -24.85,-14.35"
         style="fill:#46bdc3;fill-opacity:1;fill-rule:evenodd;stroke:none"
         id="path304" />
      <path
         d="m 1388.94,3378.37 -169.97,98.77 -122.02,-70.45 169.97,-98.77 122.02,70.45"
         style="fill:#6c80b1;fill-opacity:1;fill-rule:evenodd;stroke:none"
         id="path306" />
      <path
         d="m 1313.45,3459.43 -80.51,46.79 0.33,-113.61 80.5,-46.78 -0.32,113.6"
         style="fill:#3aa0a9;fill-opacity:1;fill-rule:evenodd;stroke:none"
         id="path308" />
      <path
         d="m 1338.31,3473.78 -80.51,46.79 -24.86,-14.35 80.51,-46.79 24.86,14.35"
         style="fill:#60cad5;fill-opacity:1;fill-rule:evenodd;stroke:none"
         id="path310" />
      <path
         d="m 1313.45,3459.43 0.32,-113.6 24.86,14.35 -0.32,113.6 -24.86,-14.35"
         style="fill:#46bdc3;fill-opacity:1;fill-rule:evenodd;stroke:none"
         id="path312" />
      <path
         d="m 1278.26,3439.77 -80.51,46.78 0.32,-113.61 80.51,-46.78 -0.32,113.61"
         style="fill:#9bafad;fill-opacity:1;fill-rule:evenodd;stroke:none"
         id="path314" />
      <path
         d="m 1303.12,3454.12 -80.52,46.79 -24.85,-14.36 80.51,-46.78 24.86,14.35"
         style="fill:#c3ddd9;fill-opacity:1;fill-rule:evenodd;stroke:none"
         id="path316" />
      <path
         d="m 1278.26,3439.77 0.32,-113.61 24.86,14.35 -0.32,113.61 -24.86,-14.35"
         style="fill:#afc9c4;fill-opacity:1;fill-rule:evenodd;stroke:none"
         id="path318" />
      <path
         d="m 1237.03,3079.96 -169.96,98.77 0.39,-140.21 169.97,-98.78 -0.4,140.22"
         style="fill:#455884;fill-opacity:1;fill-rule:evenodd;stroke:none"
         id="path320" />
      <path
         d="m 1084.44,2991.86 -169.963,98.77 0.394,-140.21 169.969,-98.77 -0.4,140.21"
         style="fill:#455884;fill-opacity:1;fill-rule:evenodd;stroke:none"
         id="path322" />
      <path
         d="m 1114.43,3184.79 -169.961,98.78 0.394,-140.22 169.967,-98.77 -0.4,140.21"
         style="fill:#3a3890;fill-opacity:1;fill-rule:evenodd;stroke:none"
         id="path324" />
      <path
         d="m 1236.53,3255.29 -169.96,98.77 -122.101,-70.49 169.961,-98.78 122.1,70.5"
         style="fill:#414199;fill-opacity:1;fill-rule:evenodd;stroke:none"
         id="path326" />
      <path
         d="m 1084.35,3026.98 -169.971,98.77 -122.02,-70.44 169.965,-98.78 122.026,70.45"
         style="fill:#6c80b1;fill-opacity:1;fill-rule:evenodd;stroke:none"
         id="path328" />
      <path
         d="m 1237.43,3115.08 -169.97,98.77 -122.101,-70.5 169.971,-98.77 122.1,70.5"
         style="fill:#6c80b1;fill-opacity:1;fill-rule:evenodd;stroke:none"
         id="path330" />
      <path
         d="m 1237.03,3255.29 -169.96,98.77 0.39,-140.21 169.97,-98.77 -0.4,140.21"
         style="fill:#455884;fill-opacity:1;fill-rule:evenodd;stroke:none"
         id="path332" />
      <path
         d="m 1204.89,3219.45 -80.51,46.79 0.32,-113.6 80.51,-46.8 -0.32,113.61"
         style="fill:#4a76ac;fill-opacity:1;fill-rule:evenodd;stroke:none"
         id="path334" />
      <path
         d="m 1229.75,3233.8 -80.51,46.8 -24.86,-14.36 80.51,-46.79 24.86,14.35"
         style="fill:#669dda;fill-opacity:1;fill-rule:evenodd;stroke:none"
         id="path336" />
      <path
         d="m 1204.89,3219.45 0.32,-113.61 24.86,14.36 -0.32,113.6 -24.86,-14.35"
         style="fill:#6194d0;fill-opacity:1;fill-rule:evenodd;stroke:none"
         id="path338" />
      <path
         d="m 1165.86,3197.1 -80.5,46.79 0.32,-113.61 80.51,-46.78 -0.33,113.6"
         style="fill:#aecfeb;fill-opacity:1;fill-rule:evenodd;stroke:none"
         id="path340" />
      <path
         d="m 1190.72,3211.45 -80.51,46.79 -24.85,-14.35 80.5,-46.79 24.86,14.35"
         style="fill:#ddf0fb;fill-opacity:1;fill-rule:evenodd;stroke:none"
         id="path342" />
      <path
         d="m 1165.86,3197.1 0.33,-113.6 24.85,14.34 -0.32,113.61 -24.86,-14.35"
         style="fill:#cbe3f5;fill-opacity:1;fill-rule:evenodd;stroke:none"
         id="path344" />
      <path
         d="m 1134.62,3173.69 -63.96,67.67 -31.87,-109.05 63.96,-67.67 31.87,109.05"
         style="fill:#9bafad;fill-opacity:1;fill-rule:evenodd;stroke:none"
         id="path346" />
      <path
         d="m 1162.52,3180.41 -63.96,67.68 -27.9,-6.73 63.96,-67.67 27.9,6.72"
         style="fill:#c3ddd9;fill-opacity:1;fill-rule:evenodd;stroke:none"
         id="path348" />
      <path
         d="m 1134.62,3173.69 -31.87,-109.05 27.9,6.72 31.87,109.05 -27.9,-6.72"
         style="fill:#afc9c4;fill-opacity:1;fill-rule:evenodd;stroke:none"
         id="path350" />
      <path
         d="m 1083.95,3167.19 -169.97,98.78 0.399,-140.22 169.971,-98.77 -0.4,140.21"
         style="fill:#455884;fill-opacity:1;fill-rule:evenodd;stroke:none"
         id="path352" />
      <path
         d="m 1236.44,3290.32 -169.97,98.77 -122.099,-70.49 169.969,-98.78 122.1,70.5"
         style="fill:#6c80b1;fill-opacity:1;fill-rule:evenodd;stroke:none"
         id="path354" />
      <path
         d="m 961.93,3096.74 -0.098,35.04 122.018,70.45 -0.4,140.21 30.49,17.6 0.4,-140.22 122.1,70.5 -0.4,140.21 30.48,17.6 0.4,-140.21 122.02,70.45 0.1,-35.03 -122.02,-70.45 0.4,-140.21 122.02,70.44 0.1,-35.11 -122.03,-70.45 0.41,-140.22 -30.49,-17.6 -0.4,140.22 -122.1,-70.5 0.4,-140.21 -30.49,-17.6 -0.4,140.21 -122.022,-70.44 -0.094,35.11 122.026,70.45 -0.4,140.21 z m 152.9,-52.16 122.1,70.5 -0.4,140.21 -122.1,-70.5 0.4,-140.21 v 0"
         style="fill:#5c71a2;fill-opacity:1;fill-rule:evenodd;stroke:none"
         id="path356" />
      <path
         d="m 962.324,2956.53 -169.965,98.78 0.098,-35.12 169.961,-98.77 -0.094,35.11"
         style="fill:#455884;fill-opacity:1;fill-rule:evenodd;stroke:none"
         id="path358" />
      <path
         d="m 1236.04,3430.53 -169.97,98.78 0.4,-140.22 169.97,-98.77 -0.4,140.21"
         style="fill:#455884;fill-opacity:1;fill-rule:evenodd;stroke:none"
         id="path360" />
      <path
         d="m 1039.6,3123.95 -80.502,46.78 0.32,-113.6 80.512,-46.79 -0.33,113.61"
         style="fill:#402b43;fill-opacity:1;fill-rule:evenodd;stroke:none"
         id="path362" />
      <path
         d="m 1064.46,3138.3 -80.511,46.79 -24.851,-14.36 80.502,-46.78 24.86,14.35"
         style="fill:#714b79;fill-opacity:1;fill-rule:evenodd;stroke:none"
         id="path364" />
      <path
         d="m 1039.6,3123.95 0.33,-113.61 24.85,14.35 -0.32,113.61 -24.86,-14.35"
         style="fill:#583a5d;fill-opacity:1;fill-rule:evenodd;stroke:none"
         id="path366" />
      <path
         d="m 1004.41,3104.28 -80.508,46.79 0.321,-113.61 80.507,-46.79 -0.32,113.61"
         style="fill:#4a76ac;fill-opacity:1;fill-rule:evenodd;stroke:none"
         id="path368" />
      <path
         d="m 1029.27,3118.63 -80.516,46.79 -24.852,-14.35 80.508,-46.79 24.86,14.35"
         style="fill:#669dda;fill-opacity:1;fill-rule:evenodd;stroke:none"
         id="path370" />
      <path
         d="m 1004.41,3104.28 0.32,-113.61 24.86,14.35 -0.32,113.61 -24.86,-14.35"
         style="fill:#6194d0;fill-opacity:1;fill-rule:evenodd;stroke:none"
         id="path372" />
      <path
         d="m 965.387,3081.93 -80.516,46.79 0.328,-113.61 80.504,-46.78 -0.316,113.6"
         style="fill:#172742;fill-opacity:1;fill-rule:evenodd;stroke:none"
         id="path374" />
      <path
         d="m 990.238,3096.28 -80.508,46.79 -24.859,-14.35 80.516,-46.79 24.851,14.35"
         style="fill:#224279;fill-opacity:1;fill-rule:evenodd;stroke:none"
         id="path376" />
      <path
         d="m 965.387,3081.93 0.316,-113.6 24.86,14.35 -0.325,113.6 -24.851,-14.35"
         style="fill:#1e335b;fill-opacity:1;fill-rule:evenodd;stroke:none"
         id="path378" />
      <path
         d="m 1266.52,3448.13 -169.96,98.77 -30.49,-17.59 169.97,-98.78 30.48,17.6"
         style="fill:#6c80b1;fill-opacity:1;fill-rule:evenodd;stroke:none"
         id="path380" />
      <path
         d="m 961.832,3131.78 -169.973,98.77 0.098,-35.03 169.973,-98.78 -0.098,35.04"
         style="fill:#455884;fill-opacity:1;fill-rule:evenodd;stroke:none"
         id="path382" />
      <path
         d="m 1083.85,3202.23 -169.963,98.77 -122.028,-70.45 169.973,-98.77 122.018,70.45"
         style="fill:#6c80b1;fill-opacity:1;fill-rule:evenodd;stroke:none"
         id="path384" />
      <path
         d="m 1200.63,3396.47 -80.51,46.79 0.32,-113.61 80.51,-46.78 -0.32,113.6"
         style="fill:#172742;fill-opacity:1;fill-rule:evenodd;stroke:none"
         id="path386" />
      <path
         d="m 1225.48,3410.83 -80.51,46.78 -24.85,-14.35 80.51,-46.79 24.85,14.36"
         style="fill:#224279;fill-opacity:1;fill-rule:evenodd;stroke:none"
         id="path388" />
      <path
         d="m 1200.63,3396.47 0.32,-113.6 24.86,14.35 -0.33,113.61 -24.85,-14.36"
         style="fill:#1e335b;fill-opacity:1;fill-rule:evenodd;stroke:none"
         id="path390" />
      <path
         d="m 1161.6,3374.12 -80.51,46.79 0.32,-113.61 80.51,-46.79 -0.32,113.61"
         style="fill:#402b43;fill-opacity:1;fill-rule:evenodd;stroke:none"
         id="path392" />
      <path
         d="m 1186.46,3388.47 -80.52,46.79 -24.85,-14.35 80.51,-46.79 24.86,14.35"
         style="fill:#714b79;fill-opacity:1;fill-rule:evenodd;stroke:none"
         id="path394" />
      <path
         d="m 1161.6,3374.12 0.32,-113.61 24.86,14.35 -0.32,113.61 -24.86,-14.35"
         style="fill:#583a5d;fill-opacity:1;fill-rule:evenodd;stroke:none"
         id="path396" />
      <path
         d="m 1126.41,3354.46 -80.52,46.79 0.33,-113.61 80.51,-46.79 -0.32,113.61"
         style="fill:#ccb9cd;fill-opacity:1;fill-rule:evenodd;stroke:none"
         id="path398" />
      <path
         d="m 1151.26,3368.81 -80.51,46.79 -24.86,-14.35 80.52,-46.79 24.85,14.35"
         style="fill:#f8eaf6;fill-opacity:1;fill-rule:evenodd;stroke:none"
         id="path400" />
      <path
         d="m 1126.41,3354.46 0.32,-113.61 24.85,14.35 -0.32,113.61 -24.85,-14.35"
         style="fill:#e5d5e7;fill-opacity:1;fill-rule:evenodd;stroke:none"
         id="path402" />
      <path
         d="m 961.93,3096.74 -0.098,35.04 122.018,70.45 -0.4,140.21 30.49,17.6 c 0,-1.71 0.01,-3.3 1.39,-490.79 l -30.49,-17.6 -0.4,140.21 -122.022,-70.44 -0.094,35.11 122.026,70.45 -0.4,140.21 -122.02,-70.45"
         style="fill:#5c71a2;fill-opacity:1;fill-rule:evenodd;stroke:none"
         id="path404" />
      <path
         d="m 1113.94,3360.04 -169.971,98.77 -30.477,-17.6 169.958,-98.77 30.49,17.6"
         style="fill:#6c80b1;fill-opacity:1;fill-rule:evenodd;stroke:none"
         id="path406" />
      <path
         d="m 1083.45,3342.44 -169.958,98.77 0.395,-140.21 169.963,-98.77 -0.4,140.21"
         style="fill:#455884;fill-opacity:1;fill-rule:evenodd;stroke:none"
         id="path408" />
      <path
         d="m 1031.08,3307.15 -80.514,46.79 0.317,-113.61 80.517,-46.79 -0.32,113.61"
         style="fill:#aecfeb;fill-opacity:1;fill-rule:evenodd;stroke:none"
         id="path410" />
      <path
         d="m 1055.93,3321.5 -80.508,46.79 -24.856,-14.35 80.514,-46.79 24.85,14.35"
         style="fill:#ddf0fb;fill-opacity:1;fill-rule:evenodd;stroke:none"
         id="path412" />
      <path
         d="m 1031.08,3307.15 0.32,-113.61 24.85,14.36 -0.32,113.6 -24.85,-14.35"
         style="fill:#cbe3f5;fill-opacity:1;fill-rule:evenodd;stroke:none"
         id="path414" />
      <path
         d="m 977.656,3261.56 -63.961,67.67 -31.871,-109.04 63.957,-67.68 31.875,109.05"
         style="fill:#d0e0de;fill-opacity:1;fill-rule:evenodd;stroke:none"
         id="path416" />
      <path
         d="m 1005.56,3268.28 -63.962,67.68 -27.903,-6.73 63.961,-67.67 27.904,6.72"
         style="fill:#fafdfd;fill-opacity:1;fill-rule:evenodd;stroke:none"
         id="path418" />
      <path
         d="m 977.656,3261.56 -31.875,-109.05 27.907,6.72 31.872,109.05 -27.904,-6.72"
         style="fill:#e6efee;fill-opacity:1;fill-rule:evenodd;stroke:none"
         id="path420" />
      <path
         d="m 2773.36,1407.75 c 133.21,-261.73 -166.1,-479.512 -442.27,-499.34 -212.92,-15.301 -547.7,66.18 -572.6,323.84 -5.38,55.64 246.14,-103.06 300.59,-55.45 41.66,36.42 255.27,441.38 411.67,438.53 140.88,-2.58 275.12,-153.56 302.61,-207.58"
         style="fill:#bcc6de;fill-opacity:1;fill-rule:evenodd;stroke:none"
         id="path422" />
      <path
         d="m 2718.54,1236.74 c 43.69,105.82 10.52,213.52 -74.79,286.29 -153.33,130.77 -394.17,207.44 -593.31,158.26 -213.09,-52.64 -329.81,-232.58 -82.91,-447.14 150.27,-130.6 724.7,-61.12 751.01,2.59"
         style="fill:#385f75;fill-opacity:1;fill-rule:evenodd;stroke:none"
         id="path424" />
      <path
         d="m 2734.61,1333.14 c 12.85,-53.72 -34.26,-150.6 -99.41,-211.57 -150.17,-140.539 -596.02,-209.019 -818.67,15.89 -180.62,182.46 -68.66,657.53 160.15,777.05 73.1,38.14 123.32,-34 157.23,-91.39 47.87,-81.06 115.98,-209.5 185.46,-272.14 44.62,-40.22 110.42,-60.95 223.41,-54.15 95.64,5.76 156.77,-17.03 191.83,-163.69"
         style="fill:#2c4a5c;fill-opacity:1;fill-rule:evenodd;stroke:none"
         id="path426" />
    </g>
  </g>
</svg>
