<?xml version="1.0" encoding="UTF-8" standalone="no"?>
<!-- Created with Inkscape (http://www.inkscape.org/) -->

<svg
   version="1.1"
   id="svg2"
   width="600"
   height="600"
   viewBox="0 0 600 600"
   sodipodi:docname="tasks.eps"
   xmlns:inkscape="http://www.inkscape.org/namespaces/inkscape"
   xmlns:sodipodi="http://sodipodi.sourceforge.net/DTD/sodipodi-0.dtd"
   xmlns="http://www.w3.org/2000/svg"
   xmlns:svg="http://www.w3.org/2000/svg">
  <defs
     id="defs6" />
  <sodipodi:namedview
     id="namedview4"
     pagecolor="#ffffff"
     bordercolor="#000000"
     borderopacity="0.25"
     inkscape:showpageshadow="2"
     inkscape:pageopacity="0.0"
     inkscape:pagecheckerboard="0"
     inkscape:deskcolor="#d1d1d1" />
  <g
     id="g8"
     inkscape:groupmode="layer"
     inkscape:label="ink_ext_XXXXXX"
     transform="matrix(1.3333333,0,0,-1.3333333,0,600)">
    <g
       id="g10"
       transform="scale(0.1)">
      <path
         d="m 3078.35,3097.42 -44.01,-25.45 -1649.99,952.65 44.16,25.38 1649.84,-952.58"
         style="fill:#8ccccb;fill-opacity:1;fill-rule:nonzero;stroke:none"
         id="path12" />
      <path
         d="m 3078.35,2940.61 -44.01,-25.51 v 156.87 l 44.01,25.45 v -156.81"
         style="fill:#3e6669;fill-opacity:1;fill-rule:nonzero;stroke:none"
         id="path14" />
      <path
         d="m 3078.35,1175.21 -44.01,-25.42 V 2915.1 l 44.01,25.51 v -1765.4"
         style="fill:#d1d1d1;fill-opacity:1;fill-rule:nonzero;stroke:none"
         id="path16" />
      <path
         d="M 3034.34,3071.97 1384.35,4024.62 V 3867.7 l 1649.99,-952.6 v 156.87"
         style="fill:#389998;fill-opacity:1;fill-rule:nonzero;stroke:none"
         id="path18" />
      <path
         d="m 2703.13,3183.5 -24.69,42.63 -34.77,20.09 -24.58,-14.2 v -40.18 l 24.58,-42.65 34.77,-20.14 24.69,14.3 v 40.15"
         style="fill:#b4c342;fill-opacity:1;fill-rule:nonzero;stroke:none"
         id="path20" />
      <path
         d="m 2678.44,3226.13 -34.77,20.09 18.32,10.58 34.85,-20.13 -13.77,-11.15 -4.63,0.61"
         style="fill:#dde65c;fill-opacity:1;fill-rule:nonzero;stroke:none"
         id="path22" />
      <path
         d="m 2703.13,3183.5 -24.69,42.63 18.4,10.54 24.64,-42.6 -13.99,-12.56 -4.36,1.99"
         style="fill:#dbd348;fill-opacity:1;fill-rule:nonzero;stroke:none"
         id="path24" />
      <path
         d="m 2703.13,3143.35 v 40.15 l 18.35,10.57 v -40.18 l -18.35,-10.54"
         style="fill:#92a145;fill-opacity:1;fill-rule:nonzero;stroke:none"
         id="path26" />
      <path
         d="m 2819.78,3116.17 -24.73,42.65 -34.8,20.1 -24.58,-14.2 v -40.21 l 24.58,-42.63 34.8,-20.07 24.73,14.18 v 40.18"
         style="fill:#7dd2e3;fill-opacity:1;fill-rule:nonzero;stroke:none"
         id="path28" />
      <path
         d="m 2795.05,3158.82 -34.8,20.1 18.4,10.58 34.73,-20.09 -13.57,-11.15 -4.76,0.56"
         style="fill:#baf3ff;fill-opacity:1;fill-rule:nonzero;stroke:none"
         id="path30" />
      <path
         d="m 2819.78,3116.17 -24.73,42.65 18.33,10.59 24.69,-42.66 -13.96,-12.5 -4.33,1.92"
         style="fill:#87aaff;fill-opacity:1;fill-rule:nonzero;stroke:none"
         id="path32" />
      <path
         d="m 2819.78,3075.99 v 40.18 l 18.29,10.58 v -40.16 l -18.29,-10.6"
         style="fill:#5f9fad;fill-opacity:1;fill-rule:nonzero;stroke:none"
         id="path34" />
      <path
         d="m 2936.43,3048.81 -24.73,42.67 -34.8,20.09 -24.61,-14.21 v -40.17 l 24.61,-42.67 34.8,-20.09 24.73,14.27 v 40.11"
         style="fill:#bf261b;fill-opacity:1;fill-rule:nonzero;stroke:none"
         id="path36" />
      <path
         d="m 2911.7,3091.48 -34.8,20.09 18.36,10.62 34.77,-20.09 -13.72,-11.16 -4.61,0.54"
         style="fill:#fa5c52;fill-opacity:1;fill-rule:nonzero;stroke:none"
         id="path38" />
      <path
         d="m 2936.43,3048.81 -24.73,42.67 18.33,10.62 24.73,-42.69 -13.99,-12.44 -4.34,1.84"
         style="fill:#bf261b;fill-opacity:1;fill-rule:nonzero;stroke:none"
         id="path40" />
      <path
         d="m 2936.43,3008.7 v 40.11 l 18.33,10.6 v -40.19 l -18.33,-10.52"
         style="fill:#991f16;fill-opacity:1;fill-rule:nonzero;stroke:none"
         id="path42" />
      <path
         d="M 1384.35,2102.41 3034.34,1149.79 V 2915.1 L 1384.35,3867.7 V 2102.41"
         style="fill:#f5f5f5;fill-opacity:1;fill-rule:nonzero;stroke:none"
         id="path44" />
      <path
         d="m 1655.92,2021.79 -8.97,-14.05 -50.72,-2.74 -60.23,34.65 -50.9,64.12 -29.45,78.18 v 65.81 l 29.45,44.77 14.1,-0.73 156.72,-270.01"
         style="fill:#a39c95;fill-opacity:1;fill-rule:nonzero;stroke:none"
         id="path46" />
      <path
         d="m 1678.76,2059.93 v 65.31 l -28.29,72.91 -48.99,60.94 -56.58,32.71 -49,-4.38 -28.29,-40.28 v -65.3 l 28.29,-72.91 49,-60.94 56.58,-32.68 48.99,4.37 28.29,40.25"
         style="fill:#f5f5f5;fill-opacity:1;fill-rule:nonzero;stroke:none"
         id="path48" />
      <path
         d="m 1650.47,2198.15 -48.99,60.94 -28.6,16.52 V 2153.7 l 105.88,-61.1 v 32.64 l -28.29,72.91"
         style="fill:#fbe979;fill-opacity:1;fill-rule:nonzero;stroke:none"
         id="path50" />
      <path
         d="m 1576.83,2244.44 -3.64,-2.09 -7.29,21.7 3.65,2.07 7.28,-4.22 v -17.46"
         style="fill:#0a0808;fill-opacity:1;fill-rule:nonzero;stroke:none"
         id="path52" />
      <path
         d="m 1576.83,2040.99 -3.64,-2.08 -7.29,21.69 3.65,2.07 7.28,-4.22 v -17.46"
         style="fill:#0a0808;fill-opacity:1;fill-rule:nonzero;stroke:none"
         id="path54" />
      <path
         d="m 1650.01,2109.17 3.65,2.08 15.14,-8.75 0.07,-8.37 -3.64,-2.11 -15.22,17.15"
         style="fill:#0a0808;fill-opacity:1;fill-rule:nonzero;stroke:none"
         id="path56" />
      <path
         d="m 1473.86,2210.9 3.64,2.07 15.15,-8.74 v -8.38 l -3.61,-2.07 -15.18,17.12"
         style="fill:#0a0808;fill-opacity:1;fill-rule:nonzero;stroke:none"
         id="path58" />
      <path
         d="m 1627.55,2053.43 5.1,2.98 10.73,-18.56 -5.1,-2.97 -10.73,18.55"
         style="fill:#0a0808;fill-opacity:1;fill-rule:nonzero;stroke:none"
         id="path60" />
      <path
         d="m 1503,2269.22 5.1,2.96 10.73,-18.52 -5.18,-2.97 -10.65,18.53"
         style="fill:#0a0808;fill-opacity:1;fill-rule:nonzero;stroke:none"
         id="path62" />
      <path
         d="m 1632.65,2181.95 -5.1,8.92 10.73,6.21 5.1,-8.92 -10.73,-6.21"
         style="fill:#0a0808;fill-opacity:1;fill-rule:nonzero;stroke:none"
         id="path64" />
      <path
         d="m 1508.1,2110.04 -5.1,8.91 10.65,6.15 5.18,-8.87 -10.73,-6.19"
         style="fill:#0a0808;fill-opacity:1;fill-rule:nonzero;stroke:none"
         id="path66" />
      <path
         d="m 1573.19,2242.35 -7.29,4.18 v 17.52 l 7.29,-4.22 v -17.48"
         style="fill:#574943;fill-opacity:1;fill-rule:nonzero;stroke:none"
         id="path68" />
      <path
         d="m 1573.19,2038.91 -7.29,4.21 v 17.48 l 7.29,-4.19 v -17.5"
         style="fill:#574943;fill-opacity:1;fill-rule:nonzero;stroke:none"
         id="path70" />
      <path
         d="m 1650.01,2100.78 v 8.39 l 15.22,-8.72 v -8.43 l -15.22,8.76"
         style="fill:#574943;fill-opacity:1;fill-rule:nonzero;stroke:none"
         id="path72" />
      <path
         d="m 1473.86,2202.5 v 8.4 l 15.18,-8.76 v -8.36 l -15.18,8.72"
         style="fill:#574943;fill-opacity:1;fill-rule:nonzero;stroke:none"
         id="path74" />
      <path
         d="m 1623.91,2051.36 5.17,2.98 10.66,-18.56 -5.1,-2.93 -10.73,18.51"
         style="fill:#574943;fill-opacity:1;fill-rule:nonzero;stroke:none"
         id="path76" />
      <path
         d="m 1499.35,2267.14 5.1,2.97 10.74,-18.56 -5.18,-2.93 -10.66,18.52"
         style="fill:#574943;fill-opacity:1;fill-rule:nonzero;stroke:none"
         id="path78" />
      <path
         d="m 1629.08,2179.88 -5.17,8.92 10.73,6.19 5.1,-8.92 -10.66,-6.19"
         style="fill:#574943;fill-opacity:1;fill-rule:nonzero;stroke:none"
         id="path80" />
      <path
         d="m 1504.45,2107.99 -5.1,8.89 10.66,6.19 5.18,-8.95 -10.74,-6.13"
         style="fill:#574943;fill-opacity:1;fill-rule:nonzero;stroke:none"
         id="path82" />
      <path
         d="m 1652.27,2199.21 -53.97,67.1 -62.3,36 -53.97,-4.83 -31.09,-44.3 v -71.95 l 31.09,-80.3 53.97,-67.12 62.3,-35.96 53.97,4.81 31.17,44.3 v 71.95 z m 20.44,-142.76 -28.26,-40.24 -48.99,-4.39 -56.58,32.68 -48.99,60.94 -28.3,72.91 v 65.34 l 28.3,40.26 48.99,4.33 56.58,-32.65 48.99,-60.93 28.26,-72.91 v -65.34"
         style="fill:#d8d1c7;fill-opacity:1;fill-rule:nonzero;stroke:none"
         id="path84" />
      <path
         d="m 1711.93,2063.44 -28.49,-16.48 v 71.95 l 28.49,16.45 v -71.92"
         style="fill:#a39c95;fill-opacity:1;fill-rule:nonzero;stroke:none"
         id="path86" />
      <path
         d="m 1680.76,2019.14 -28.49,-16.48 31.17,44.3 28.49,16.48 -31.17,-44.3"
         style="fill:#87817c;fill-opacity:1;fill-rule:nonzero;stroke:none"
         id="path88" />
      <path
         d="m 1626.82,2282.8 -28.52,-16.49 -62.3,36 28.49,16.44 62.33,-35.95"
         style="fill:#e6e1dd;fill-opacity:1;fill-rule:nonzero;stroke:none"
         id="path90" />
      <path
         d="m 1680.76,2215.69 -28.49,-16.48 -53.97,67.1 28.52,16.49 53.94,-67.11"
         style="fill:#c2bebb;fill-opacity:1;fill-rule:nonzero;stroke:none"
         id="path92" />
      <path
         d="m 1564.49,2318.75 -28.49,-16.44 -53.97,-4.83 28.56,16.44 53.9,4.83"
         style="fill:#c2bebb;fill-opacity:1;fill-rule:nonzero;stroke:none"
         id="path94" />
      <path
         d="m 1711.93,2135.36 -28.49,-16.45 -31.17,80.3 28.49,16.48 31.17,-80.33"
         style="fill:#b5afa7;fill-opacity:1;fill-rule:nonzero;stroke:none"
         id="path96" />
      <path
         d="m 2064.95,1785.59 -8.93,-14.05 -50.71,-2.76 -60.23,34.65 -50.91,64.14 -29.44,78.18 v 65.78 l 29.44,44.78 14.11,-0.73 156.67,-269.99"
         style="fill:#a39c95;fill-opacity:1;fill-rule:nonzero;stroke:none"
         id="path98" />
      <path
         d="m 2087.84,1823.71 v 65.32 l -28.29,72.92 -48.99,60.93 -56.62,32.7 -49,-4.41 -28.29,-40.23 v -65.32 l 28.29,-72.92 49,-60.93 56.62,-32.66 48.99,4.37 28.29,40.23"
         style="fill:#f5f5f5;fill-opacity:1;fill-rule:nonzero;stroke:none"
         id="path100" />
      <path
         d="m 1982,1917.48 105.84,-61.09 v -32.68 l -28.29,-40.23 -48.99,-4.37 -56.62,32.66 28.06,105.71"
         style="fill:#7dd2e3;fill-opacity:1;fill-rule:nonzero;stroke:none"
         id="path102" />
      <path
         d="m 1985.87,2008.22 -3.64,-2.07 -7.28,21.68 3.63,2.07 7.29,-4.22 v -17.46"
         style="fill:#0a0808;fill-opacity:1;fill-rule:nonzero;stroke:none"
         id="path104" />
      <path
         d="m 1985.87,1804.77 -3.64,-2.07 -7.28,21.68 3.63,2.05 7.29,-4.18 v -17.48"
         style="fill:#0a0808;fill-opacity:1;fill-rule:nonzero;stroke:none"
         id="path106" />
      <path
         d="m 2059.17,1872.97 3.64,2.07 15.1,-8.76 v -8.39 l -3.64,-2.08 -15.1,17.16"
         style="fill:#0a0808;fill-opacity:1;fill-rule:nonzero;stroke:none"
         id="path108" />
      <path
         d="m 1882.9,1974.7 3.64,2.06 15.22,-8.75 v -8.36 l -3.64,-2.11 -15.22,17.16"
         style="fill:#0a0808;fill-opacity:1;fill-rule:nonzero;stroke:none"
         id="path110" />
      <path
         d="m 2036.59,1817.23 5.17,2.97 10.7,-18.55 -5.14,-2.97 -10.73,18.55"
         style="fill:#0a0808;fill-opacity:1;fill-rule:nonzero;stroke:none"
         id="path112" />
      <path
         d="m 1912.03,2033 5.14,2.97 10.7,-18.55 -5.1,-2.94 -10.74,18.52"
         style="fill:#0a0808;fill-opacity:1;fill-rule:nonzero;stroke:none"
         id="path114" />
      <path
         d="m 2041.76,1945.75 -5.17,8.91 10.73,6.19 5.14,-8.93 -10.7,-6.17"
         style="fill:#0a0808;fill-opacity:1;fill-rule:nonzero;stroke:none"
         id="path116" />
      <path
         d="m 1917.17,1873.83 -5.14,8.9 10.74,6.17 5.1,-8.88 -10.7,-6.19"
         style="fill:#0a0808;fill-opacity:1;fill-rule:nonzero;stroke:none"
         id="path118" />
      <path
         d="m 1982.23,2006.15 -7.28,4.18 v 17.5 l 7.28,-4.22 v -17.46"
         style="fill:#574943;fill-opacity:1;fill-rule:nonzero;stroke:none"
         id="path120" />
      <path
         d="m 1982.23,1802.7 -7.28,4.18 v 17.5 l 7.28,-4.22 v -17.46"
         style="fill:#574943;fill-opacity:1;fill-rule:nonzero;stroke:none"
         id="path122" />
      <path
         d="m 2059.17,1864.56 v 8.41 l 15.1,-8.76 v -8.4 l -15.1,8.75"
         style="fill:#574943;fill-opacity:1;fill-rule:nonzero;stroke:none"
         id="path124" />
      <path
         d="m 1882.9,1966.28 v 8.42 l 15.22,-8.77 v -8.39 l -15.22,8.74"
         style="fill:#574943;fill-opacity:1;fill-rule:nonzero;stroke:none"
         id="path126" />
      <path
         d="m 2032.95,1815.16 5.17,2.97 10.7,-18.55 -5.14,-2.96 -10.73,18.54"
         style="fill:#574943;fill-opacity:1;fill-rule:nonzero;stroke:none"
         id="path128" />
      <path
         d="m 1908.4,2030.93 5.17,2.98 10.66,-18.56 -5.1,-2.97 -10.73,18.55"
         style="fill:#574943;fill-opacity:1;fill-rule:nonzero;stroke:none"
         id="path130" />
      <path
         d="m 2038.12,1943.68 -5.17,8.9 10.73,6.17 5.14,-8.88 -10.7,-6.19"
         style="fill:#574943;fill-opacity:1;fill-rule:nonzero;stroke:none"
         id="path132" />
      <path
         d="m 1913.57,1871.78 -5.17,8.88 10.73,6.19 5.1,-8.93 -10.66,-6.14"
         style="fill:#574943;fill-opacity:1;fill-rule:nonzero;stroke:none"
         id="path134" />
      <path
         d="m 2061.32,1963 -53.91,67.09 -62.33,36 -53.94,-4.82 -31.16,-44.29 v -71.96 l 31.16,-80.29 53.94,-67.15 62.33,-35.96 53.91,4.84 31.16,44.29 v 71.96 z m 20.5,-142.76 -28.29,-40.25 -48.99,-4.37 -56.58,32.66 -49,60.95 -28.33,72.92 v 65.34 l 28.33,40.23 49,4.36 56.58,-32.65 48.99,-60.93 28.29,-72.92 v -65.34"
         style="fill:#d8d1c7;fill-opacity:1;fill-rule:nonzero;stroke:none"
         id="path136" />
      <path
         d="m 2120.96,1827.24 -28.48,-16.49 v 71.96 l 28.48,16.44 v -71.91"
         style="fill:#a39c95;fill-opacity:1;fill-rule:nonzero;stroke:none"
         id="path138" />
      <path
         d="m 2089.79,1782.92 -28.47,-16.46 31.16,44.29 28.48,16.49 -31.17,-44.32"
         style="fill:#87817c;fill-opacity:1;fill-rule:nonzero;stroke:none"
         id="path140" />
      <path
         d="m 2035.9,2046.57 -28.49,-16.48 -62.33,36 28.48,16.44 62.34,-35.96"
         style="fill:#e6e1dd;fill-opacity:1;fill-rule:nonzero;stroke:none"
         id="path142" />
      <path
         d="m 2089.79,1979.47 -28.47,-16.47 -53.91,67.09 28.49,16.48 53.89,-67.1"
         style="fill:#c2bebb;fill-opacity:1;fill-rule:nonzero;stroke:none"
         id="path144" />
      <path
         d="m 1973.56,2082.53 -28.48,-16.44 -53.94,-4.82 28.49,16.45 53.93,4.81"
         style="fill:#c2bebb;fill-opacity:1;fill-rule:nonzero;stroke:none"
         id="path146" />
      <path
         d="m 2120.96,1899.15 -28.48,-16.44 -31.16,80.29 28.47,16.47 31.17,-80.32"
         style="fill:#b5afa7;fill-opacity:1;fill-rule:nonzero;stroke:none"
         id="path148" />
      <path
         d="m 2474.03,1549.36 -8.89,-14.05 -50.8,-2.74 -60.14,34.66 -50.99,64.13 -29.37,78.17 v 65.8 l 29.37,44.78 14.11,-0.77 156.71,-269.98"
         style="fill:#a39c95;fill-opacity:1;fill-rule:nonzero;stroke:none"
         id="path150" />
      <path
         d="m 2496.88,1587.51 v 65.3 l -28.29,72.92 -48.92,60.93 -56.62,32.68 -48.99,-4.37 -28.29,-40.25 v -65.31 l 28.29,-72.91 48.99,-60.93 56.62,-32.68 48.92,4.36 28.29,40.26"
         style="fill:#f5f5f5;fill-opacity:1;fill-rule:nonzero;stroke:none"
         id="path152" />
      <path
         d="m 2391.04,1681.28 -92.43,-4.95 15.45,-39.83 48.99,-60.93 27.99,105.71"
         style="fill:#fa5c52;fill-opacity:1;fill-rule:nonzero;stroke:none"
         id="path154" />
      <path
         d="m 2394.95,1772.02 -3.65,-2.09 -7.2,21.69 3.64,2.07 7.21,-4.21 v -17.46"
         style="fill:#0a0808;fill-opacity:1;fill-rule:nonzero;stroke:none"
         id="path156" />
      <path
         d="m 2394.95,1568.57 -3.65,-2.09 -7.2,21.7 3.64,2.03 7.21,-4.18 v -17.46"
         style="fill:#0a0808;fill-opacity:1;fill-rule:nonzero;stroke:none"
         id="path158" />
      <path
         d="m 2468.21,1636.75 3.64,2.07 15.14,-8.74 v -8.4 l -3.64,-2.09 -15.14,17.16"
         style="fill:#0a0808;fill-opacity:1;fill-rule:nonzero;stroke:none"
         id="path160" />
      <path
         d="m 2292.05,1738.47 3.65,2.07 15.1,-8.74 v -8.39 l -3.6,-2.09 -15.15,17.15"
         style="fill:#0a0808;fill-opacity:1;fill-rule:nonzero;stroke:none"
         id="path162" />
      <path
         d="m 2445.66,1581.03 5.18,2.97 10.73,-18.57 -5.17,-2.98 -10.74,18.58"
         style="fill:#0a0808;fill-opacity:1;fill-rule:nonzero;stroke:none"
         id="path164" />
      <path
         d="m 2321.11,1796.8 5.18,2.97 10.65,-18.56 -5.09,-2.94 -10.74,18.53"
         style="fill:#0a0808;fill-opacity:1;fill-rule:nonzero;stroke:none"
         id="path166" />
      <path
         d="m 2450.84,1709.53 -5.18,8.91 10.74,6.21 5.17,-8.95 -10.73,-6.17"
         style="fill:#0a0808;fill-opacity:1;fill-rule:nonzero;stroke:none"
         id="path168" />
      <path
         d="m 2326.29,1637.61 -5.18,8.91 10.74,6.18 5.09,-8.92 -10.65,-6.17"
         style="fill:#0a0808;fill-opacity:1;fill-rule:nonzero;stroke:none"
         id="path170" />
      <path
         d="m 2391.3,1769.93 -7.2,4.19 v 17.5 l 7.2,-4.21 v -17.48"
         style="fill:#574943;fill-opacity:1;fill-rule:nonzero;stroke:none"
         id="path172" />
      <path
         d="m 2391.3,1566.48 -7.2,4.2 v 17.5 l 7.2,-4.22 v -17.48"
         style="fill:#574943;fill-opacity:1;fill-rule:nonzero;stroke:none"
         id="path174" />
      <path
         d="m 2468.21,1628.35 v 8.4 l 15.14,-8.74 v -8.42 l -15.14,8.76"
         style="fill:#574943;fill-opacity:1;fill-rule:nonzero;stroke:none"
         id="path176" />
      <path
         d="m 2292.05,1730.08 v 8.39 l 15.15,-8.74 v -8.41 l -15.15,8.76"
         style="fill:#574943;fill-opacity:1;fill-rule:nonzero;stroke:none"
         id="path178" />
      <path
         d="m 2442.1,1578.94 5.1,2.97 10.73,-18.56 -5.18,-2.93 -10.65,18.52"
         style="fill:#574943;fill-opacity:1;fill-rule:nonzero;stroke:none"
         id="path180" />
      <path
         d="m 2317.47,1794.71 5.18,2.97 10.73,-18.56 -5.18,-2.97 -10.73,18.56"
         style="fill:#574943;fill-opacity:1;fill-rule:nonzero;stroke:none"
         id="path182" />
      <path
         d="m 2447.2,1707.46 -5.1,8.91 10.65,6.17 5.18,-8.91 -10.73,-6.17"
         style="fill:#574943;fill-opacity:1;fill-rule:nonzero;stroke:none"
         id="path184" />
      <path
         d="m 2322.65,1635.54 -5.18,8.92 10.73,6.15 5.18,-8.91 -10.73,-6.16"
         style="fill:#574943;fill-opacity:1;fill-rule:nonzero;stroke:none"
         id="path186" />
      <path
         d="m 2470.43,1726.78 -53.98,67.11 -62.25,35.99 -53.98,-4.85 -31.17,-44.28 v -71.95 l 31.17,-80.29 53.98,-67.13 62.25,-35.96 53.98,4.81 31.13,44.3 v 71.95 z m 20.47,-142.76 -28.33,-40.23 -48.99,-4.39 -56.59,32.68 -48.99,60.93 -28.29,72.92 v 65.34 l 28.29,40.21 48.99,4.37 56.59,-32.64 48.99,-60.95 28.33,-72.92 v -65.32"
         style="fill:#d8d1c7;fill-opacity:1;fill-rule:nonzero;stroke:none"
         id="path188" />
      <path
         d="m 2530.11,1591.01 -28.55,-16.48 v 71.95 l 28.55,16.45 v -71.92"
         style="fill:#a39c95;fill-opacity:1;fill-rule:nonzero;stroke:none"
         id="path190" />
      <path
         d="m 2498.95,1546.68 -28.52,-16.45 31.13,44.3 28.55,16.48 -31.16,-44.33"
         style="fill:#87817c;fill-opacity:1;fill-rule:nonzero;stroke:none"
         id="path192" />
      <path
         d="m 2444.97,1810.37 -28.52,-16.48 -62.25,35.99 28.48,16.45 62.29,-35.96"
         style="fill:#e6e1dd;fill-opacity:1;fill-rule:nonzero;stroke:none"
         id="path194" />
      <path
         d="m 2498.95,1743.23 -28.52,-16.45 -53.98,67.11 28.52,16.48 53.98,-67.14"
         style="fill:#c2bebb;fill-opacity:1;fill-rule:nonzero;stroke:none"
         id="path196" />
      <path
         d="m 2382.68,1846.33 -28.48,-16.45 -53.98,-4.85 28.48,16.47 53.98,4.83"
         style="fill:#c2bebb;fill-opacity:1;fill-rule:nonzero;stroke:none"
         id="path198" />
      <path
         d="m 2530.11,1662.93 -28.55,-16.45 -31.13,80.3 28.52,16.45 31.16,-80.3"
         style="fill:#b5afa7;fill-opacity:1;fill-rule:nonzero;stroke:none"
         id="path200" />
      <path
         d="m 2883.07,1313.16 -8.85,-14.05 -50.72,-2.78 -60.27,34.66 -50.91,64.15 -29.44,78.19 v 65.78 l 29.44,44.79 14.07,-0.76 156.68,-269.98"
         style="fill:#a39c95;fill-opacity:1;fill-rule:nonzero;stroke:none"
         id="path202" />
      <path
         d="m 2905.96,1351.28 v 65.33 l -28.29,72.91 -48.96,60.93 -56.58,32.69 -49,-4.39 -28.29,-40.24 v -65.32 l 28.29,-72.92 49,-60.93 56.58,-32.66 48.96,4.37 28.29,40.23"
         style="fill:#f5f5f5;fill-opacity:1;fill-rule:nonzero;stroke:none"
         id="path204" />
      <path
         d="m 2707.69,1440.11 92.42,4.94 V 1560 l -34.04,19.65 -45.16,-4.03 -26.07,-37.11 v -65.32 l 12.85,-33.08"
         style="fill:#9fb366;fill-opacity:1;fill-rule:nonzero;stroke:none"
         id="path206" />
      <path
         d="m 2803.98,1535.79 -3.56,-2.07 -7.29,21.66 3.65,2.11 7.2,-4.22 v -17.48"
         style="fill:#0a0808;fill-opacity:1;fill-rule:nonzero;stroke:none"
         id="path208" />
      <path
         d="m 2803.98,1332.35 -3.56,-2.08 -7.29,21.67 3.65,2.07 7.2,-4.18 v -17.48"
         style="fill:#0a0808;fill-opacity:1;fill-rule:nonzero;stroke:none"
         id="path210" />
      <path
         d="m 2877.28,1400.55 3.64,2.06 15.11,-8.75 v -8.4 l -3.61,-2.07 -15.14,17.16"
         style="fill:#0a0808;fill-opacity:1;fill-rule:nonzero;stroke:none"
         id="path212" />
      <path
         d="m 2701.09,1502.27 3.64,2.07 15.15,-8.76 v -8.4 l -3.64,-2.07 -15.15,17.16"
         style="fill:#0a0808;fill-opacity:1;fill-rule:nonzero;stroke:none"
         id="path214" />
      <path
         d="m 2854.78,1344.81 5.1,2.96 10.73,-18.55 -5.1,-2.97 -10.73,18.56"
         style="fill:#0a0808;fill-opacity:1;fill-rule:nonzero;stroke:none"
         id="path216" />
      <path
         d="m 2730.15,1560.57 5.18,2.98 10.69,-18.56 -5.13,-2.97 -10.74,18.55"
         style="fill:#0a0808;fill-opacity:1;fill-rule:nonzero;stroke:none"
         id="path218" />
      <path
         d="m 2859.88,1473.33 -5.1,8.91 10.73,6.15 5.1,-8.89 -10.73,-6.17"
         style="fill:#0a0808;fill-opacity:1;fill-rule:nonzero;stroke:none"
         id="path220" />
      <path
         d="m 2735.33,1401.41 -5.18,8.87 10.74,6.19 5.13,-8.91 -10.69,-6.15"
         style="fill:#0a0808;fill-opacity:1;fill-rule:nonzero;stroke:none"
         id="path222" />
      <path
         d="m 2800.42,1533.72 -7.29,4.18 v 17.48 l 7.29,-4.2 v -17.46"
         style="fill:#574943;fill-opacity:1;fill-rule:nonzero;stroke:none"
         id="path224" />
      <path
         d="m 2800.42,1330.27 -7.29,4.19 v 17.48 l 7.29,-4.2 v -17.47"
         style="fill:#574943;fill-opacity:1;fill-rule:nonzero;stroke:none"
         id="path226" />
      <path
         d="m 2877.28,1392.13 v 8.42 l 15.14,-8.77 v -8.39 l -15.14,8.74"
         style="fill:#574943;fill-opacity:1;fill-rule:nonzero;stroke:none"
         id="path228" />
      <path
         d="m 2701.09,1493.85 v 8.42 l 15.15,-8.76 v -8.4 l -15.15,8.74"
         style="fill:#574943;fill-opacity:1;fill-rule:nonzero;stroke:none"
         id="path230" />
      <path
         d="m 2851.14,1342.73 5.1,2.98 10.73,-18.56 -5.17,-2.95 -10.66,18.53"
         style="fill:#574943;fill-opacity:1;fill-rule:nonzero;stroke:none"
         id="path232" />
      <path
         d="m 2726.58,1558.51 5.1,2.97 10.74,-18.56 -5.18,-2.97 -10.66,18.56"
         style="fill:#574943;fill-opacity:1;fill-rule:nonzero;stroke:none"
         id="path234" />
      <path
         d="m 2856.24,1471.26 -5.1,8.91 10.66,6.15 5.17,-8.91 -10.73,-6.15"
         style="fill:#574943;fill-opacity:1;fill-rule:nonzero;stroke:none"
         id="path236" />
      <path
         d="m 2731.68,1399.32 -5.1,8.91 10.66,6.17 5.18,-8.91 -10.74,-6.17"
         style="fill:#574943;fill-opacity:1;fill-rule:nonzero;stroke:none"
         id="path238" />
      <path
         d="m 2879.5,1490.57 -53.97,67.11 -62.3,35.98 -53.97,-4.85 -31.17,-44.29 v -71.92 l 31.17,-80.34 53.97,-67.1 62.3,-35.96 53.97,4.83 31.09,44.3 v 71.95 z m 20.44,-142.76 -28.3,-40.25 -48.91,-4.37 -56.66,32.68 -48.95,60.94 -28.3,72.91 v 65.34 l 28.3,40.22 48.95,4.37 56.66,-32.65 48.91,-60.97 28.3,-72.91 v -65.31"
         style="fill:#d8d1c7;fill-opacity:1;fill-rule:nonzero;stroke:none"
         id="path240" />
      <path
         d="m 2939.16,1354.81 -28.57,-16.48 v 71.95 l 28.57,16.45 v -71.92"
         style="fill:#a39c95;fill-opacity:1;fill-rule:nonzero;stroke:none"
         id="path242" />
      <path
         d="m 2907.99,1310.48 -28.49,-16.45 31.09,44.3 28.57,16.48 -31.17,-44.33"
         style="fill:#87817c;fill-opacity:1;fill-rule:nonzero;stroke:none"
         id="path244" />
      <path
         d="m 2854.09,1574.15 -28.56,-16.47 -62.3,35.98 28.53,16.47 62.33,-35.98"
         style="fill:#e6e1dd;fill-opacity:1;fill-rule:nonzero;stroke:none"
         id="path246" />
      <path
         d="m 2907.99,1507.02 -28.49,-16.45 -53.97,67.11 28.56,16.47 53.9,-67.13"
         style="fill:#c2bebb;fill-opacity:1;fill-rule:nonzero;stroke:none"
         id="path248" />
      <path
         d="m 2791.76,1610.13 -28.53,-16.47 -53.97,-4.85 28.52,16.48 53.98,4.84"
         style="fill:#c2bebb;fill-opacity:1;fill-rule:nonzero;stroke:none"
         id="path250" />
      <path
         d="m 2939.16,1426.73 -28.57,-16.45 -31.09,80.29 28.49,16.45 31.17,-80.29"
         style="fill:#b5afa7;fill-opacity:1;fill-rule:nonzero;stroke:none"
         id="path252" />
      <path
         d="M 2939.16,1830.47 1479.42,2673.26 V 3735.23 L 2939.16,2892.42 V 1830.47"
         style="fill:#29617d;fill-opacity:1;fill-rule:nonzero;stroke:none"
         id="path254" />
      <path
         d="m 1526.99,3357.2 227.87,-131.58 v 263.15 l -227.87,131.55 V 3357.2"
         style="fill:#fa5c52;fill-opacity:1;fill-rule:nonzero;stroke:none"
         id="path256" />
      <path
         d="m 1560.92,3555.55 -6.51,-3.78 v -10.69 l 6.51,-11.31 159.94,-92.33 6.59,3.77 v 10.66 l -6.59,11.35 -159.94,92.33"
         style="fill:#f5f5f5;fill-opacity:1;fill-rule:nonzero;stroke:none"
         id="path258" />
      <path
         d="m 1560.92,3507.15 -6.51,-3.76 v -10.67 l 6.51,-11.31 97.34,-56.3 6.51,3.76 v 10.68 l -6.51,11.31 -97.34,56.29"
         style="fill:#f5f5f5;fill-opacity:1;fill-rule:nonzero;stroke:none"
         id="path260" />
      <path
         d="m 1810.6,3193.43 227.9,-131.54 v 263.09 l -227.9,131.55 v -263.1"
         style="fill:#fa5c52;fill-opacity:1;fill-rule:nonzero;stroke:none"
         id="path262" />
      <path
         d="m 2094.28,3029.65 227.83,-131.55 0.08,263.11 -227.91,131.55 v -263.11"
         style="fill:#17435c;fill-opacity:1;fill-rule:nonzero;stroke:none"
         id="path264" />
      <path
         d="m 2377.97,2865.92 227.82,-131.59 v 263.09 l -227.82,131.55 v -263.05"
         style="fill:#7dd2e3;fill-opacity:1;fill-rule:nonzero;stroke:none"
         id="path266" />
      <path
         d="m 2411.93,3077.66 -6.52,-3.78 v -10.65 l 6.52,-11.35 159.93,-92.29 6.52,3.75 v 10.64 l -6.52,11.35 -159.93,92.33"
         style="fill:#f5f5f5;fill-opacity:1;fill-rule:nonzero;stroke:none"
         id="path268" />
      <path
         d="m 2411.93,3029.3 -6.52,-3.76 v -10.71 l 6.52,-11.29 159.93,-92.31 6.52,3.77 v 10.66 l -6.52,11.31 -159.93,92.33"
         style="fill:#f5f5f5;fill-opacity:1;fill-rule:nonzero;stroke:none"
         id="path270" />
      <path
         d="m 2889.47,2833.67 -227.86,131.57 v -263.11 l 227.86,-131.59 v 263.13"
         style="fill:#17435c;fill-opacity:1;fill-rule:nonzero;stroke:none"
         id="path272" />
      <path
         d="m 1526.99,3041.99 227.87,-131.57 v 263.12 l -227.87,131.55 v -263.1"
         style="fill:#17435c;fill-opacity:1;fill-rule:nonzero;stroke:none"
         id="path274" />
      <path
         d="m 1810.6,2878.24 227.9,-131.59 v 263.14 l -227.9,131.53 v -263.08"
         style="fill:#9fb366;fill-opacity:1;fill-rule:nonzero;stroke:none"
         id="path276" />
      <path
         d="m 1844.61,3087.55 -6.52,-3.76 v -10.67 l 6.52,-11.33 159.93,-92.31 6.52,3.78 v 10.63 l -6.52,11.33 -159.93,92.33"
         style="fill:#f5f5f5;fill-opacity:1;fill-rule:nonzero;stroke:none"
         id="path278" />
      <path
         d="m 1844.61,3039.21 -6.52,-3.78 v -10.69 l 6.52,-11.31 159.93,-92.29 6.52,3.75 v 10.68 l -6.52,11.31 -159.93,92.33"
         style="fill:#f5f5f5;fill-opacity:1;fill-rule:nonzero;stroke:none"
         id="path280" />
      <path
         d="m 2094.28,2714.45 227.83,-131.55 0.08,263.12 -227.91,131.54 v -263.11"
         style="fill:#9fb366;fill-opacity:1;fill-rule:nonzero;stroke:none"
         id="path282" />
      <path
         d="m 2377.97,2550.68 227.82,-131.55 v 263.1 l -227.82,131.55 v -263.1"
         style="fill:#9fb366;fill-opacity:1;fill-rule:nonzero;stroke:none"
         id="path284" />
      <path
         d="m 2661.61,2386.93 227.86,-131.58 v 263.11 l -227.86,131.55 v -263.08"
         style="fill:#17435c;fill-opacity:1;fill-rule:nonzero;stroke:none"
         id="path286" />
      <path
         d="m 1526.99,2732.07 227.87,-131.59 v 263.13 l -227.87,131.51 v -263.05"
         style="fill:#17435c;fill-opacity:1;fill-rule:nonzero;stroke:none"
         id="path288" />
      <path
         d="m 1810.6,2568.28 227.9,-131.59 v 263.14 l -227.9,131.56 v -263.11"
         style="fill:#17435c;fill-opacity:1;fill-rule:nonzero;stroke:none"
         id="path290" />
      <path
         d="m 2094.28,2404.51 227.83,-131.57 0.08,263.12 -227.91,131.54 v -263.09"
         style="fill:#e3bd5e;fill-opacity:1;fill-rule:nonzero;stroke:none"
         id="path292" />
      <path
         d="m 2128.25,2616.47 -6.52,-3.76 v -10.7 l 6.52,-11.31 159.97,-92.33 6.52,3.8 v 10.64 l -6.52,11.32 -159.97,92.34"
         style="fill:#f5f5f5;fill-opacity:1;fill-rule:nonzero;stroke:none"
         id="path294" />
      <path
         d="m 2128.25,2568.12 -6.52,-3.77 v -10.7 l 6.52,-11.31 97.29,-56.29 6.59,3.75 v 10.68 l -6.59,11.33 -97.29,56.31"
         style="fill:#f5f5f5;fill-opacity:1;fill-rule:nonzero;stroke:none"
         id="path296" />
      <path
         d="m 2377.97,2240.76 227.82,-131.59 v 263.1 l -227.82,131.57 v -263.08"
         style="fill:#17435c;fill-opacity:1;fill-rule:nonzero;stroke:none"
         id="path298" />
      <path
         d="m 2661.61,2076.97 227.86,-131.56 v 263.13 l -227.86,131.51 v -263.08"
         style="fill:#e3bd5e;fill-opacity:1;fill-rule:nonzero;stroke:none"
         id="path300" />
      <path
         d="m 2690.82,2295.91 -6.52,-3.76 v -10.68 l 6.52,-11.33 159.93,-92.31 6.6,3.78 v 10.67 l -6.6,11.33 -159.93,92.3"
         style="fill:#f5f5f5;fill-opacity:1;fill-rule:nonzero;stroke:none"
         id="path302" />
      <path
         d="m 2690.82,2136.3 -6.52,-3.78 v -10.66 l 6.52,-11.34 159.93,-92.33 6.6,3.79 v 10.68 l -6.6,11.31 -159.93,92.33"
         style="fill:#f5f5f5;fill-opacity:1;fill-rule:nonzero;stroke:none"
         id="path304" />
      <path
         d="m 2690.82,2247.56 -6.52,-3.77 v -10.66 l 6.52,-11.35 97.33,-56.27 6.52,3.77 v 10.66 l -6.52,11.31 -97.33,56.31"
         style="fill:#f5f5f5;fill-opacity:1;fill-rule:nonzero;stroke:none"
         id="path306" />
      <path
         d="m 2924.2,1738.43 -1429.71,825.44 -15.07,-8.65 v -18.87 l 15.07,-25.99 1429.71,-825.48 14.96,8.68 v 18.82 l -14.96,26.05"
         style="fill:#d1d1d1;fill-opacity:1;fill-rule:nonzero;stroke:none"
         id="path308" />
      <path
         d="m 2561.02,1855.16 -1066.23,615.75 -15.06,-8.76 v -18.81 l 15.06,-25.99 1066.23,-615.67 15.02,8.65 v 18.94 l -15.02,25.89"
         style="fill:#d1d1d1;fill-opacity:1;fill-rule:nonzero;stroke:none"
         id="path310" />
      <path
         d="m 1432.65,1616.6 32.7,-0.51 50.03,-1.38 9.09,0.57 v -6.29 l -33.43,-18.46 -64.83,-5.86 -45.16,-18.09 -2.87,13.39 8.09,19.38 46.38,17.25"
         style="fill:#0a0808;fill-opacity:1;fill-rule:nonzero;stroke:none"
         id="path312" />
      <path
         d="m 1311.09,1480.95 134.13,7.86 53.41,13.61 v -6.29 l -3.11,-23.04 -38.79,-18.32 -116.23,5.79 -60.23,-2.67 -11.5,32.5 v 6.28 l 42.32,-15.72"
         style="fill:#0a0808;fill-opacity:1;fill-rule:nonzero;stroke:none"
         id="path314" />
      <path
         d="m 1429.78,1656.55 38.52,-9.45 47.92,-5.12 8.25,-13.3 v -13.4 l -33.43,-18.46 -64.83,-5.86 -45.16,-18.08 -2.87,13.34 v 57.76 l 51.6,12.57"
         style="fill:#362c29;fill-opacity:1;fill-rule:nonzero;stroke:none"
         id="path316" />
      <path
         d="m 1421.69,1897.34 2.11,-177.04 11.46,-68.08 -18.83,-30.34 -57.88,-18.46 -28.02,175.55 91.16,118.37"
         style="fill:#544540;fill-opacity:1;fill-rule:nonzero;stroke:none"
         id="path318" />
      <path
         d="m 1378.18,1554.29 57.08,-19.38 57.62,-14.16 5.75,-18.33 -3.11,-23.02 -38.79,-18.34 -116.23,5.75 -60.23,-2.59 -11.5,32.45 4.14,39.28 105.27,18.34"
         style="fill:#362c29;fill-opacity:1;fill-rule:nonzero;stroke:none"
         id="path320" />
      <path
         d="m 1276.05,2292.24 6.83,-78.72 26.68,-93.09 -10.47,-252.42 -23.04,-107.92 -7.28,-231.49 38.75,-21.16 57.55,9.13 23.46,34.04 28.94,306.93 57.62,187.48 12.57,205.29 -109.48,94.24 -86.45,-5.71 -15.68,-46.6"
         style="fill:#685750;fill-opacity:1;fill-rule:nonzero;stroke:none"
         id="path322" />
      <path
         d="m 1434.26,2694.98 65.98,-73.34 25.38,-101.07 -57.89,-3.16 -76.86,150.96 43.39,26.61"
         style="fill:#f5f5f5;fill-opacity:1;fill-rule:nonzero;stroke:none"
         id="path324" />
      <path
         d="m 1315.88,2768.81 -36.72,-6.82 -100.48,-136.67 20.89,-85.87 111.52,-132.52 48.23,56.56 -11.54,262.64 -31.9,42.68"
         style="fill:#685750;fill-opacity:1;fill-rule:nonzero;stroke:none"
         id="path326" />
      <path
         d="m 1281.84,2605.94 -66.05,-42.41 66.05,21.19 z"
         style="fill:#544540;fill-opacity:1;fill-rule:nonzero;stroke:none"
         id="path328" />
      <path
         d="m 1425.06,2751.5 v -66.22 h -23.31 l -52.63,23.83 -29.83,41.13 v 28.52 l 21.21,19.66 80.34,-7.34 4.22,-39.58"
         style="fill:#c7a495;fill-opacity:1;fill-rule:nonzero;stroke:none"
         id="path330" />
      <path
         d="m 1320.56,2743.39 25.15,-40.04 84.07,-29.48 53.78,-49.64 37.3,-95.8 -7.78,-332.58 -29.9,-41.84 -62.45,-16.27 h -62.49 l -72.26,40.04 -4.83,36.95 -0.27,54.95 7.48,31.83 -9.78,-26.57 -4.33,-33.13 -3.95,54.58 33.77,125.72 -37.76,146.9 -10.15,99.78 23.72,77.92 37.04,25.24 3.64,-28.56"
         style="fill:#836e69;fill-opacity:1;fill-rule:nonzero;stroke:none"
         id="path332" />
      <path
         d="m 1327.15,2769.71 4.03,-15.29 21.96,-30.25 50.72,-21.62 36.54,-2.07 -8.71,-36.17 -40.82,4.06 -59.35,29.91 -21.96,36.87 -3.11,34.56 h 20.7"
         style="fill:#f5f5f5;fill-opacity:1;fill-rule:nonzero;stroke:none"
         id="path334" />
      <path
         d="m 1536.39,2622.29 9.89,26.22 42.44,15.8 34.04,-7.55 v -28.05 l -69.89,-29.07 -16.48,22.65"
         style="fill:#a39c95;fill-opacity:1;fill-rule:nonzero;stroke:none"
         id="path336" />
      <path
         d="m 1538.95,2650.34 7.1,16.59 27.33,13.27 22.16,-3.05 3.37,-26.81 -43.74,-15.34 -16.22,15.34"
         style="fill:#d1d1d1;fill-opacity:1;fill-rule:nonzero;stroke:none"
         id="path338" />
      <path
         d="m 1551.26,2686.87 -10.73,-27.5 10.73,-31.71 h 17.33 l 37.68,17.31 -22.81,41.61 -12.68,4.22 -19.52,-3.93"
         style="fill:#f0c6b4;fill-opacity:1;fill-rule:nonzero;stroke:none"
         id="path340" />
      <path
         d="m 1396.39,2938.6 38.1,-27.85 19.63,-31.42 V 2864 l 29.44,-20.8 -9.81,-20.05 7.05,-54.2 -29.44,-18.89 -51.87,-6.67 -9.39,21.63 -26.76,-1.19 -18.21,11.77 -25.34,37.74 -16.56,74.25 51.87,51.01 h 41.29"
         style="fill:#f0c6b4;fill-opacity:1;fill-rule:nonzero;stroke:none"
         id="path342" />
      <path
         d="m 1372.92,2950.54 24.66,-12.58 4.17,-8.87 -5.75,-15.71 -24.65,-8.38 -25.64,-15.72 v -14.15 l 15.14,-7.34 25.68,-5.21 10.47,-17.85 0.58,-24.07 4.17,-16.77 -10.5,-9.97 -14.11,15.2 -22.04,0.54 -13.07,-11.52 3.1,-22.54 -13.07,-15.14 -14.64,-2.11 -35.08,23.02 -24.08,38.77 -5.78,41.37 10.46,44.01 33.01,31.93 36.69,13.09 h 40.28"
         style="fill:#5e4439;fill-opacity:1;fill-rule:nonzero;stroke:none"
         id="path344" />
      <path
         d="m 1478.2,2792.9 51.37,-14.7 28.78,-29.82 25.11,-61.8 -42.93,-27.21 -37.15,21.46 -15.72,19.9 -19.93,19.89 7.86,12.04 17.82,-10.46 12.58,-13.09 9.89,4.19 -14.11,50.28 -23.57,13.61 v 15.71"
         style="fill:#f0c6b4;fill-opacity:1;fill-rule:nonzero;stroke:none"
         id="path346" />
      <path
         d="m 1552.76,2602.8 -13.81,47.54 22.05,-5.37 27.06,11.79 7.48,20.39 23.85,-43.2 -14.38,-26.84 -21.55,-9.41 -30.7,5.1"
         style="fill:#f5f5f5;fill-opacity:1;fill-rule:nonzero;stroke:none"
         id="path348" />
      <path
         d="m 1314.31,2569.77 49.49,36.17 60.49,-8.24 138.24,-67.97 -26.14,92.56 32.96,-2.76 35.31,13.9 18.1,23.33 55.54,-176.34 -16.02,-48.9 -41.63,-31.42 -244.31,61.28 -49.19,48.7 -12.84,59.69"
         style="fill:#685750;fill-opacity:1;fill-rule:nonzero;stroke:none"
         id="path350" />
      <path
         d="m 1562.53,2529.73 47.88,-73.83 v 26.7 z"
         style="fill:#544540;fill-opacity:1;fill-rule:nonzero;stroke:none"
         id="path352" />
      <path
         d="m 2012.7,1267.45 v -21.82 l -9,-11.75 h -28.79 l -15.99,24.11 -29.94,32.05 -5.75,36.94 24.19,21.41 65.28,-80.94"
         style="fill:#0a0808;fill-opacity:1;fill-rule:nonzero;stroke:none"
         id="path354" />
      <path
         d="m 1946.84,1339.61 -9.31,-17.54 19.24,-42.99 6.25,42.44 -16.18,18.09"
         style="fill:#f0c6b4;fill-opacity:1;fill-rule:nonzero;stroke:none"
         id="path356" />
      <path
         d="m 2029.19,1255.12 v -27.95 l 10.27,-25.85 32.78,-3.74 46.88,32.89 39.03,19.7 23,34.12 -17.71,24.21 -58.31,-3.68 -75.94,-49.7"
         style="fill:#0a0808;fill-opacity:1;fill-rule:nonzero;stroke:none"
         id="path358" />
      <path
         d="m 2132.08,1306.55 14.14,-5.03 v -15.2 l -58.34,-41.07 -12.69,30.63 56.89,30.67"
         style="fill:#f0c6b4;fill-opacity:1;fill-rule:nonzero;stroke:none"
         id="path360" />
      <path
         d="m 1896.32,1907.74 4.29,-124.82 33.66,-137.99 -7.4,-131.47 19.97,-200.69 7.17,-35.03 49.3,-25.23 42.75,44.89 -19.74,337.39 19.74,242.07 -50.15,52.56 -99.59,-21.68"
         style="fill:#362c29;fill-opacity:1;fill-rule:nonzero;stroke:none"
         id="path362" />
      <path
         d="m 1926.6,1885.6 119.46,-8.74 v -293.53 l -23,-83.27 -1.15,-246.97 17.55,-27.41 54.75,13.13 37.76,62.98 8.24,289.19 51.48,233.3 9.89,74.49 -61.37,67.89 h -215.79 l -28.1,-58.92 30.28,-22.14"
         style="fill:#574943;fill-opacity:1;fill-rule:nonzero;stroke:none"
         id="path364" />
      <path
         d="m 1815.54,2065.45 121.49,15.72 9.81,29 -5.4,33.43 -71.23,-3.28 -59.15,-23.04 4.48,-51.83"
         style="fill:#a39c95;fill-opacity:1;fill-rule:nonzero;stroke:none"
         id="path366" />
      <path
         d="m 1946.84,2368.13 47.73,7.11 26.76,21.91 89.28,-4.37 17.52,-17.54 48.8,-16.45 43.24,-49.27 5.49,-67.9 -21.89,-20.81 -39.49,-101.05 19.74,-57.8 23.01,-152.24 -20.82,-41.62 -69,-14.24 -57.43,-6.19 -17.06,59.31 -13.99,-58.39 -53.9,7.44 -59.15,19.78 -25.23,41.65 23.31,141.51 21.66,62.7 -19.93,82.61 -16.3,37.34 5.56,101.86 42.09,24.65"
         style="fill:#b5afa7;fill-opacity:1;fill-rule:nonzero;stroke:none"
         id="path368" />
      <path
         d="m 2002.74,2402.08 -8.17,-26.84 30.1,-16.45 39.13,-2.68 47.92,7.09 16.41,12.04 -8.16,26.84 h -117.23"
         style="fill:#f5f5f5;fill-opacity:1;fill-rule:nonzero;stroke:none"
         id="path370" />
      <path
         d="m 2078.87,2637.59 -12.07,11.5 -35.04,-2.18 -39.95,-37.8 -41.05,-87.1 2.68,-70.08 h 9.31 l 0.58,-41.08 20.81,-6.05 -3.29,-4.35 31.74,-25.21 h 56.96 l 18.6,7.67 v -7.67 l 38.91,9.86 33.39,40.51 16.48,69.03 -15.91,70.13 -47.65,71.15 -26.83,10.99 -7.67,-9.32"
         style="fill:#853e2a;fill-opacity:1;fill-rule:nonzero;stroke:none"
         id="path372" />
      <path
         d="m 2078.87,2637.59 14.38,-54.49 8.62,13.55 z"
         style="fill:#693121;fill-opacity:1;fill-rule:nonzero;stroke:none"
         id="path374" />
      <path
         d="m 1900.8,2141.68 -31.24,-42.95 -3.18,15.29 22.46,27.66 h 11.96"
         style="fill:#87817c;fill-opacity:1;fill-rule:nonzero;stroke:none"
         id="path376" />
      <path
         d="m 1946.84,2368.13 -27.9,-57.52 -3.49,-109.52 -55.9,-124.88 -41.9,-11.49 -25.49,9.03 -12.34,37.78 75.63,196.36 32.82,56.69 58.57,3.55"
         style="fill:#a39c95;fill-opacity:1;fill-rule:nonzero;stroke:none"
         id="path378" />
      <path
         d="m 2176.93,2358.79 20.24,-54.99 6.6,-82.99 83.72,-101.05 -71.42,-40.26 -0.8,-24.65 9.81,-21.33 21.43,-12.61 123.14,43.81 17.32,50.91 -127.39,199.63 -42.74,43.53 h -39.91"
         style="fill:#a39c95;fill-opacity:1;fill-rule:nonzero;stroke:none"
         id="path380" />
      <path
         d="m 2287.49,2119.76 34.12,-34.51 -16.98,4.09 z"
         style="fill:#87817c;fill-opacity:1;fill-rule:nonzero;stroke:none"
         id="path382" />
      <path
         d="m 1995.91,2078.68 131.46,6.57 -109.3,-20.53 z"
         style="fill:#a39c95;fill-opacity:1;fill-rule:nonzero;stroke:none"
         id="path384" />
      <path
         d="m 1499.93,1269.5 8.63,9.96 -54.75,14.3 z"
         style="fill:#836e69;fill-opacity:1;fill-rule:nonzero;stroke:none"
         id="path386" />
      <path
         d="m 1493.83,1253.95 4.68,12.52 -44.7,27.29 z"
         style="fill:#403531;fill-opacity:1;fill-rule:nonzero;stroke:none"
         id="path388" />
      <path
         d="m 1493.83,1263.92 h 4.99 l 1.11,10.6 -46.12,19.24 40.02,-29.84"
         style="fill:#685750;fill-opacity:1;fill-rule:nonzero;stroke:none"
         id="path390" />
      <path
         d="m 1587.49,1160.47 48.03,36.3 1.27,49.03 -51.29,8.59 -85.57,20.13 -6.1,-10.6 64.52,-57.6 29.14,-45.85"
         style="fill:#efc58b;fill-opacity:1;fill-rule:nonzero;stroke:none"
         id="path392" />
      <path
         d="m 1587.49,1160.47 v 33.29 l -93.66,70.16 v -9.97 l 93.66,-93.48"
         style="fill:#c79d5c;fill-opacity:1;fill-rule:nonzero;stroke:none"
         id="path394" />
      <path
         d="m 1607.88,1229.17 28.91,16.63 -128.23,33.66 -8.63,-4.94 107.95,-45.35"
         style="fill:#f7e6bb;fill-opacity:1;fill-rule:nonzero;stroke:none"
         id="path396" />
      <path
         d="m 2495.88,669.359 20.36,35.321 28.87,16.64 20.43,-11.789 v -33.269 l -20.43,-35.332 -28.87,-16.7 -20.36,11.75 v 33.379"
         style="fill:#785b56;fill-opacity:1;fill-rule:nonzero;stroke:none"
         id="path398" />
      <path
         d="m 2516.24,704.68 28.87,16.64 -908.32,524.48 -28.91,-16.63 904.6,-524.971 3.76,0.481"
         style="fill:#fa5c52;fill-opacity:1;fill-rule:nonzero;stroke:none"
         id="path400" />
      <path
         d="m 2495.88,669.359 20.36,35.321 -908.36,524.49 -20.39,-35.41 904.75,-526.03 3.64,1.629"
         style="fill:#c84030;fill-opacity:1;fill-rule:nonzero;stroke:none"
         id="path402" />
      <path
         d="m 2495.88,635.98 v 33.379 l -908.39,524.401 v -33.29 l 908.39,-524.49"
         style="fill:#991f16;fill-opacity:1;fill-rule:nonzero;stroke:none"
         id="path404" />
      <path
         d="m 2616.72,599.609 20.39,35.34 28.72,16.68 20.5,-11.758 V 606.5 l -20.5,-35.359 -28.72,-16.641 -20.39,11.832 v 33.277"
         style="fill:#d8d1c7;fill-opacity:1;fill-rule:nonzero;stroke:none"
         id="path406" />
      <path
         d="m 2637.11,634.949 28.72,16.68 -120.72,69.691 -28.87,-16.601 116.96,-70.168 3.91,0.398"
         style="fill:#e6e1dd;fill-opacity:1;fill-rule:nonzero;stroke:none"
         id="path408" />
      <path
         d="m 2616.72,599.609 20.39,35.34 -120.87,69.77 -20.36,-35.36 117.12,-71.328 3.72,1.578"
         style="fill:#d1d1d1;fill-opacity:1;fill-rule:nonzero;stroke:none"
         id="path410" />
      <path
         d="m 2616.72,566.332 v 33.277 l -120.84,69.75 v -33.32 l 120.84,-69.707"
         style="fill:#a39c95;fill-opacity:1;fill-rule:nonzero;stroke:none"
         id="path412" />
      <path
         d="m 2677.79,566.238 18.7,32.461 26.64,15.301 18.71,-10.789 V 572.52 l -18.71,-32.45 -26.64,-15.34 -18.7,10.891 v 30.617"
         style="fill:#c26a5e;fill-opacity:1;fill-rule:nonzero;stroke:none"
         id="path414" />
      <path
         d="m 2696.49,598.699 26.64,15.301 -55.5,31.969 -26.57,-15.289 51.95,-32.379 3.48,0.398"
         style="fill:#fca48f;fill-opacity:1;fill-rule:nonzero;stroke:none"
         id="path416" />
      <path
         d="m 2677.79,566.238 18.7,32.461 -55.43,31.981 -18.79,-32.551 52.26,-33.41 3.26,1.519"
         style="fill:#d57a70;fill-opacity:1;fill-rule:nonzero;stroke:none"
         id="path418" />
      <path
         d="m 2677.79,535.621 v 30.617 l -55.52,31.891 v -30.59 l 55.52,-31.918"
         style="fill:#a6495d;fill-opacity:1;fill-rule:nonzero;stroke:none"
         id="path420" />
      <path
         d="m 2412.51,764.621 28.82,16.641 -44.39,25.636 -28.91,-16.687 40.71,-26.07 3.77,0.48"
         style="fill:#8ccccb;fill-opacity:1;fill-rule:nonzero;stroke:none"
         id="path422" />
      <path
         d="m 2392.07,729.219 20.44,35.402 -44.48,25.59 -20.28,-35.289 40.75,-27.274 3.57,1.571"
         style="fill:#389998;fill-opacity:1;fill-rule:nonzero;stroke:none"
         id="path424" />
      <path
         d="m 2392.07,695.898 v 33.321 l -44.32,25.703 v -33.313 l 44.32,-25.711"
         style="fill:#3e6669;fill-opacity:1;fill-rule:nonzero;stroke:none"
         id="path426" />
      <path
         d="m 2307.81,1062.98 8.63,9.91 -54.79,14.4 z"
         style="fill:#836e69;fill-opacity:1;fill-rule:nonzero;stroke:none"
         id="path428" />
      <path
         d="m 2301.68,1047.44 4.68,12.51 -44.71,27.34 z"
         style="fill:#403531;fill-opacity:1;fill-rule:nonzero;stroke:none"
         id="path430" />
      <path
         d="m 2301.68,1057.43 h 5.13 l 1,10.48 -46.16,19.38 40.03,-29.86"
         style="fill:#685750;fill-opacity:1;fill-rule:nonzero;stroke:none"
         id="path432" />
      <path
         d="m 2395.41,953.98 47.95,36.321 1.27,48.949 -51.29,8.69 -85.53,19.97 -6.13,-10.48 64.59,-57.621 29.14,-45.829"
         style="fill:#efc58b;fill-opacity:1;fill-rule:nonzero;stroke:none"
         id="path434" />
      <path
         d="m 2395.41,953.98 v 33.29 l -93.73,70.16 v -9.99 l 93.73,-93.46"
         style="fill:#c79d5c;fill-opacity:1;fill-rule:nonzero;stroke:none"
         id="path436" />
      <path
         d="m 2415.76,1022.65 28.87,16.6 -128.19,33.64 -8.63,-4.98 107.95,-45.26"
         style="fill:#f7e6bb;fill-opacity:1;fill-rule:nonzero;stroke:none"
         id="path438" />
      <path
         d="m 3075.36,594.68 20.35,35.32 28.87,16.68 20.44,-11.828 v -33.293 l -20.44,-35.27 -28.87,-16.699 -20.35,11.762 v 33.328"
         style="fill:#785b56;fill-opacity:1;fill-rule:nonzero;stroke:none"
         id="path440" />
      <path
         d="m 3095.71,630 28.87,16.68 -679.95,392.57 -28.87,-16.6 676.2,-393.119 3.75,0.469"
         style="fill:#8ccccb;fill-opacity:1;fill-rule:nonzero;stroke:none"
         id="path442" />
      <path
         d="m 3075.36,594.68 20.35,35.32 -679.95,392.65 -20.35,-35.38 676.31,-394.278 3.64,1.688"
         style="fill:#389998;fill-opacity:1;fill-rule:nonzero;stroke:none"
         id="path444" />
      <path
         d="M 3075.36,561.352 V 594.68 L 2395.41,987.27 V 953.98 L 3075.36,561.352"
         style="fill:#3e6669;fill-opacity:1;fill-rule:nonzero;stroke:none"
         id="path446" />
      <path
         d="m 3196.19,524.91 20.24,35.379 28.87,16.641 20.51,-11.75 v -33.348 l -20.51,-35.293 -28.87,-16.687 -20.24,11.796 v 33.262"
         style="fill:#d8d1c7;fill-opacity:1;fill-rule:nonzero;stroke:none"
         id="path448" />
      <path
         d="m 3216.43,560.289 28.87,16.641 -120.72,69.75 -28.87,-16.598 116.89,-70.211 3.83,0.418"
         style="fill:#e6e1dd;fill-opacity:1;fill-rule:nonzero;stroke:none"
         id="path450" />
      <path
         d="m 3196.19,524.91 20.24,35.379 -120.72,69.793 -20.35,-35.402 117.08,-71.34 3.75,1.57"
         style="fill:#d1d1d1;fill-opacity:1;fill-rule:nonzero;stroke:none"
         id="path452" />
      <path
         d="m 3196.19,491.648 v 33.262 l -120.83,69.77 v -33.321 l 120.83,-69.711"
         style="fill:#a39c95;fill-opacity:1;fill-rule:nonzero;stroke:none"
         id="path454" />
      <path
         d="m 3257.18,491.52 18.79,32.492 26.64,15.347 18.71,-10.847 V 497.84 l -18.71,-32.5 -26.64,-15.34 -18.79,10.961 v 30.559"
         style="fill:#c26a5e;fill-opacity:1;fill-rule:nonzero;stroke:none"
         id="path456" />
      <path
         d="m 3275.97,524.012 26.64,15.347 -55.59,31.95 -26.56,-15.227 52.02,-32.461 3.49,0.391"
         style="fill:#fca48f;fill-opacity:1;fill-rule:nonzero;stroke:none"
         id="path458" />
      <path
         d="m 3257.18,491.52 18.79,32.492 -55.51,32.07 -18.78,-32.594 52.25,-33.429 3.25,1.461"
         style="fill:#d57a70;fill-opacity:1;fill-rule:nonzero;stroke:none"
         id="path460" />
      <path
         d="m 3257.18,460.961 v 30.559 l -55.5,31.968 v -30.629 l 55.5,-31.898"
         style="fill:#a6495d;fill-opacity:1;fill-rule:nonzero;stroke:none"
         id="path462" />
      <path
         d="m 2991.94,689.922 28.87,16.637 -44.39,25.711 -28.91,-16.661 40.64,-26.129 3.79,0.442"
         style="fill:#fdd293;fill-opacity:1;fill-rule:nonzero;stroke:none"
         id="path464" />
      <path
         d="m 2971.55,654.5 20.39,35.422 -44.43,25.687 -20.35,-35.418 40.82,-27.179 3.57,1.488"
         style="fill:#fdb053;fill-opacity:1;fill-rule:nonzero;stroke:none"
         id="path466" />
      <path
         d="M 2971.55,621.219 V 654.5 l -44.39,25.691 V 646.93 l 44.39,-25.711"
         style="fill:#ff8e1c;fill-opacity:1;fill-rule:nonzero;stroke:none"
         id="path468" />
      <path
         d="m 2552.16,1251.19 h -78.32 l -55.2,-31.97 v -45.18 l 133.52,77.15"
         style="fill:#f7edd4;fill-opacity:1;fill-rule:nonzero;stroke:none"
         id="path470" />
      <path
         d="m 2694,1073.66 -55.36,-31.97 -9.35,57.29 42.17,18.53 22.54,6.69 v -50.54"
         style="fill:#c7ae87;fill-opacity:1;fill-rule:nonzero;stroke:none"
         id="path472" />
      <path
         d="m 2560.44,1041.69 -141.8,81.83 v 50.52 l 106.34,-44.58 35.46,-37.15 v -50.62"
         style="fill:#c84030;fill-opacity:1;fill-rule:nonzero;stroke:none"
         id="path474" />
      <path
         d="m 2638.64,1041.69 h -78.2 v 50.62 l 49.11,16.06 29.09,-16.06 v -50.62"
         style="fill:#efcfa3;fill-opacity:1;fill-rule:nonzero;stroke:none"
         id="path476" />
      <path
         d="m 2560.44,1092.31 h 78.2 l 55.36,31.89 v 45.2 l -133.56,-77.09"
         style="fill:#f7edd4;fill-opacity:1;fill-rule:nonzero;stroke:none"
         id="path478" />
      <path
         d="m 2560.44,1092.31 -141.8,81.73 133.52,77.15 141.84,-81.79 -133.56,-77.09"
         style="fill:#fa5c52;fill-opacity:1;fill-rule:nonzero;stroke:none"
         id="path480" />
      <path
         d="m 2523.6,1145.08 -56.81,32.85 h -6.83 l -4.71,-2.72 v -3.89 l 56.89,-32.89 h 6.7 l 4.76,2.83 v 3.82"
         style="fill:#836e69;fill-opacity:1;fill-rule:nonzero;stroke:none"
         id="path482" />
    </g>
  </g>
</svg>
